<svg aria-hidden="true" style="position: absolute; width: 0; height: 0; overflow: hidden;" version="1.1" xmlns="http://www.w3.org/2000/svg" xmlns:xlink="http://www.w3.org/1999/xlink">
    <defs>
        <symbol id="icon-twitter1" viewBox="0 0 32 32">
            <path fill="#afb1b8" style="fill: var(--color1, #afb1b8)" d="M32 6.078c-1.19 0.522-2.458 0.868-3.78 1.036 1.36-0.812 2.398-2.088 2.886-3.626-1.268 0.756-2.668 1.29-4.16 1.588-1.204-1.282-2.92-2.076-4.792-2.076-3.632 0-6.556 2.948-6.556 6.562 0 0.52 0.044 1.020 0.152 1.496-5.454-0.266-10.28-2.88-13.522-6.862-0.566 0.982-0.898 2.106-0.898 3.316 0 2.272 1.17 4.286 2.914 5.452-1.054-0.020-2.088-0.326-2.964-0.808 0 0.020 0 0.046 0 0.072 0 3.188 2.274 5.836 5.256 6.446-0.534 0.146-1.116 0.216-1.72 0.216-0.42 0-0.844-0.024-1.242-0.112 0.85 2.598 3.262 4.508 6.13 4.57-2.232 1.746-5.066 2.798-8.134 2.798-0.538 0-1.054-0.024-1.57-0.090 2.906 1.874 6.35 2.944 10.064 2.944 12.072 0 18.672-10 18.672-18.668 0-0.29-0.010-0.57-0.024-0.848 1.302-0.924 2.396-2.078 3.288-3.406z"></path>
        </symbol>
        <symbol id="icon-twitter2" viewBox="0 0 32 32">
            <path fill="#fff" style="fill: var(--color2, #fff)" d="M32 6.078c-1.19 0.522-2.458 0.868-3.78 1.036 1.36-0.812 2.398-2.088 2.886-3.626-1.268 0.756-2.668 1.29-4.16 1.588-1.204-1.282-2.92-2.076-4.792-2.076-3.632 0-6.556 2.948-6.556 6.562 0 0.52 0.044 1.020 0.152 1.496-5.454-0.266-10.28-2.88-13.522-6.862-0.566 0.982-0.898 2.106-0.898 3.316 0 2.272 1.17 4.286 2.914 5.452-1.054-0.020-2.088-0.326-2.964-0.808 0 0.020 0 0.046 0 0.072 0 3.188 2.274 5.836 5.256 6.446-0.534 0.146-1.116 0.216-1.72 0.216-0.42 0-0.844-0.024-1.242-0.112 0.85 2.598 3.262 4.508 6.13 4.57-2.232 1.746-5.066 2.798-8.134 2.798-0.538 0-1.054-0.024-1.57-0.090 2.906 1.874 6.35 2.944 10.064 2.944 12.072 0 18.672-10 18.672-18.668 0-0.29-0.010-0.57-0.024-0.848 1.302-0.924 2.396-2.078 3.288-3.406z"></path>
        </symbol>
        <symbol id="icon-smartphone" viewBox="0 0 20 32">
            <path fill="#757575" style="fill: var(--color3, #757575)" d="M17 0h-14c-1.654 0-3 1.346-3 3v26c0 1.654 1.346 3 3 3h14c1.654 0 3-1.346 3-3v-26c0-1.654-1.346-3-3-3zM3 2h14c0.552 0 1 0.448 1 1v21h-16v-21c0-0.552 0.448-1 1-1zM17 30h-14c-0.552 0-1-0.448-1-1v-3h16v3c0 0.552-0.448 1-1 1z"></path>
            <path fill="#757575" style="fill: var(--color3, #757575)" d="M4.707 27.478c0.391 0.365 0.391 0.956 0 1.321s-1.024 0.365-1.414 0c-0.391-0.365-0.391-0.956 0-1.321s1.024-0.365 1.414 0z"></path>
        </symbol>
        <symbol id="icon-linkedin1" viewBox="0 0 32 32">
            <path fill="#afb1b8" style="fill: var(--color1, #afb1b8)" d="M31.992 32v-0.001h0.008v-11.736c0-5.741-1.236-10.164-7.948-10.164-3.227 0-5.392 1.771-6.276 3.449h-0.093v-2.913h-6.364v21.364h6.627v-10.579c0-2.785 0.528-5.479 3.977-5.479 3.399 0 3.449 3.179 3.449 5.657v10.401h6.62z"></path>
            <path fill="#afb1b8" style="fill: var(--color1, #afb1b8)" d="M0.528 10.636h6.635v21.364h-6.635v-21.364z"></path>
            <path fill="#afb1b8" style="fill: var(--color1, #afb1b8)" d="M3.843 0c-2.121 0-3.843 1.721-3.843 3.843s1.721 3.879 3.843 3.879c2.121 0 3.843-1.757 3.843-3.879-0.001-2.121-1.723-3.843-3.843-3.843v0z"></path>
        </symbol>
        <symbol id="icon-linkedin2" viewBox="0 0 32 32">
            <path fill="#fff" style="fill: var(--color2, #fff)" d="M31.992 32v-0.001h0.008v-11.736c0-5.741-1.236-10.164-7.948-10.164-3.227 0-5.392 1.771-6.276 3.449h-0.093v-2.913h-6.364v21.364h6.627v-10.579c0-2.785 0.528-5.479 3.977-5.479 3.399 0 3.449 3.179 3.449 5.657v10.401h6.62z"></path>
            <path fill="#fff" style="fill: var(--color2, #fff)" d="M0.528 10.636h6.635v21.364h-6.635v-21.364z"></path>
            <path fill="#fff" style="fill: var(--color2, #fff)" d="M3.843 0c-2.121 0-3.843 1.721-3.843 3.843s1.721 3.879 3.843 3.879c2.121 0 3.843-1.757 3.843-3.879-0.001-2.121-1.723-3.843-3.843-3.843v0z"></path>
        </symbol>
        <symbol id="icon-instagram1" viewBox="0 0 32 32">
            <path fill="#afb1b8" style="fill: var(--color1, #afb1b8)" d="M31.969 9.408c-0.075-1.7-0.35-2.869-0.744-3.882-0.406-1.075-1.031-2.038-1.85-2.838-0.8-0.813-1.769-1.444-2.832-1.844-1.019-0.394-2.182-0.669-3.882-0.744-1.713-0.081-2.257-0.1-6.601-0.1s-4.888 0.019-6.595 0.094c-1.7 0.075-2.869 0.35-3.882 0.744-1.075 0.406-2.038 1.031-2.838 1.85-0.813 0.8-1.444 1.769-1.844 2.832-0.394 1.019-0.669 2.182-0.744 3.882-0.081 1.713-0.1 2.257-0.1 6.601s0.019 4.888 0.094 6.595c0.075 1.7 0.35 2.869 0.744 3.882 0.406 1.075 1.038 2.038 1.85 2.838 0.8 0.813 1.769 1.444 2.832 1.844 1.019 0.394 2.182 0.669 3.882 0.744 1.706 0.075 2.25 0.094 6.595 0.094s4.888-0.019 6.595-0.094c1.7-0.075 2.869-0.35 3.882-0.744 2.151-0.832 3.851-2.532 4.682-4.682 0.394-1.019 0.669-2.182 0.744-3.882 0.075-1.707 0.094-2.251 0.094-6.595s-0.006-4.888-0.081-6.595zM29.087 22.473c-0.069 1.563-0.331 2.407-0.55 2.969-0.538 1.394-1.644 2.5-3.038 3.038-0.563 0.219-1.413 0.481-2.969 0.55-1.688 0.075-2.194 0.094-6.464 0.094s-4.782-0.019-6.464-0.094c-1.563-0.069-2.407-0.331-2.969-0.55-0.694-0.256-1.325-0.663-1.838-1.194-0.531-0.519-0.938-1.144-1.194-1.838-0.219-0.563-0.481-1.413-0.55-2.969-0.075-1.688-0.094-2.194-0.094-6.464s0.019-4.782 0.094-6.464c0.069-1.563 0.331-2.407 0.55-2.969 0.256-0.694 0.663-1.325 1.2-1.838 0.519-0.531 1.144-0.938 1.838-1.194 0.563-0.219 1.413-0.481 2.969-0.55 1.688-0.075 2.194-0.094 6.464-0.094 4.276 0 4.782 0.019 6.464 0.094 1.563 0.069 2.407 0.331 2.969 0.55 0.694 0.256 1.325 0.662 1.838 1.194 0.531 0.519 0.938 1.144 1.194 1.838 0.219 0.563 0.481 1.413 0.55 2.969 0.075 1.688 0.094 2.194 0.094 6.464s-0.019 4.77-0.094 6.458z"></path>
            <path fill="#afb1b8" style="fill: var(--color1, #afb1b8)" d="M16.059 7.783c-4.538 0-8.22 3.682-8.22 8.22s3.682 8.22 8.22 8.22c4.538 0 8.22-3.682 8.22-8.22s-3.682-8.22-8.22-8.22zM16.059 21.335c-2.944 0-5.332-2.388-5.332-5.332s2.388-5.332 5.332-5.332c2.944 0 5.332 2.388 5.332 5.332s-2.388 5.332-5.332 5.332z"></path>
            <path fill="#afb1b8" style="fill: var(--color1, #afb1b8)" d="M26.524 7.458c0 1.060-0.859 1.919-1.919 1.919s-1.919-0.859-1.919-1.919c0-1.060 0.859-1.919 1.919-1.919s1.919 0.859 1.919 1.919z"></path>
        </symbol>
        <symbol id="icon-instagram2" viewBox="0 0 32 32">
            <path fill="#fff" style="fill: var(--color2, #fff)" d="M31.969 9.408c-0.075-1.7-0.35-2.869-0.744-3.882-0.406-1.075-1.031-2.038-1.85-2.838-0.8-0.813-1.769-1.444-2.832-1.844-1.019-0.394-2.182-0.669-3.882-0.744-1.713-0.081-2.257-0.1-6.601-0.1s-4.888 0.019-6.595 0.094c-1.7 0.075-2.869 0.35-3.882 0.744-1.075 0.406-2.038 1.031-2.838 1.85-0.813 0.8-1.444 1.769-1.844 2.832-0.394 1.019-0.669 2.182-0.744 3.882-0.081 1.713-0.1 2.257-0.1 6.601s0.019 4.888 0.094 6.595c0.075 1.7 0.35 2.869 0.744 3.882 0.406 1.075 1.038 2.038 1.85 2.838 0.8 0.813 1.769 1.444 2.832 1.844 1.019 0.394 2.182 0.669 3.882 0.744 1.706 0.075 2.25 0.094 6.595 0.094s4.888-0.019 6.595-0.094c1.7-0.075 2.869-0.35 3.882-0.744 2.151-0.832 3.851-2.532 4.682-4.682 0.394-1.019 0.669-2.182 0.744-3.882 0.075-1.707 0.094-2.251 0.094-6.595s-0.006-4.888-0.081-6.595zM29.087 22.473c-0.069 1.563-0.331 2.407-0.55 2.969-0.538 1.394-1.644 2.5-3.038 3.038-0.563 0.219-1.413 0.481-2.969 0.55-1.688 0.075-2.194 0.094-6.464 0.094s-4.782-0.019-6.464-0.094c-1.563-0.069-2.407-0.331-2.969-0.55-0.694-0.256-1.325-0.663-1.838-1.194-0.531-0.519-0.938-1.144-1.194-1.838-0.219-0.563-0.481-1.413-0.55-2.969-0.075-1.688-0.094-2.194-0.094-6.464s0.019-4.782 0.094-6.464c0.069-1.563 0.331-2.407 0.55-2.969 0.256-0.694 0.663-1.325 1.2-1.838 0.519-0.531 1.144-0.938 1.838-1.194 0.563-0.219 1.413-0.481 2.969-0.55 1.688-0.075 2.194-0.094 6.464-0.094 4.276 0 4.782 0.019 6.464 0.094 1.563 0.069 2.407 0.331 2.969 0.55 0.694 0.256 1.325 0.662 1.838 1.194 0.531 0.519 0.938 1.144 1.194 1.838 0.219 0.563 0.481 1.413 0.55 2.969 0.075 1.688 0.094 2.194 0.094 6.464s-0.019 4.77-0.094 6.458z"></path>
            <path fill="#fff" style="fill: var(--color2, #fff)" d="M16.059 7.783c-4.538 0-8.22 3.682-8.22 8.22s3.682 8.22 8.22 8.22c4.539 0 8.22-3.682 8.22-8.22s-3.682-8.22-8.22-8.22zM16.059 21.335c-2.944 0-5.332-2.388-5.332-5.332s2.388-5.332 5.332-5.332c2.944 0 5.332 2.388 5.332 5.332s-2.388 5.332-5.332 5.332z"></path>
            <path fill="#fff" style="fill: var(--color2, #fff)" d="M26.524 7.458c0 1.060-0.859 1.919-1.919 1.919s-1.919-0.859-1.919-1.919c0-1.060 0.859-1.919 1.919-1.919s1.919 0.859 1.919 1.919z"></path>
        </symbol>
        <symbol id="icon-facebook1" viewBox="0 0 32 32">
            <path fill="#afb1b8" style="fill: var(--color1, #afb1b8)" d="M21.329 5.313h2.921v-5.088c-0.504-0.069-2.237-0.225-4.256-0.225-4.212 0-7.097 2.649-7.097 7.519v4.481h-4.648v5.688h4.648v14.312h5.699v-14.311h4.46l0.708-5.688h-5.169v-3.919c0.001-1.644 0.444-2.769 2.735-2.769z"></path>
        </symbol>
        <symbol id="icon-facebook2" viewBox="0 0 32 32">
            <path fill="#fff" style="fill: var(--color2, #fff)" d="M21.329 5.313h2.921v-5.088c-0.504-0.069-2.237-0.225-4.256-0.225-4.212 0-7.097 2.649-7.097 7.519v4.481h-4.648v5.688h4.648v14.312h5.699v-14.311h4.46l0.708-5.688h-5.169v-3.919c0.001-1.644 0.444-2.769 2.735-2.769z"></path>
        </symbol>
        <symbol id="icon-envelope" viewBox="0 0 43 32">
            <path fill="#757575" style="fill: var(--color3, #757575)" d="M38.667 0h-34.667c-2.206 0-4 1.794-4 4v24c0 2.206 1.794 4 4 4h34.667c2.206 0 4-1.794 4-4v-24c0-2.206-1.794-4-4-4zM38.667 2.667c0.181 0 0.353 0.038 0.511 0.103l-17.844 15.466-17.844-15.466c0.158-0.066 0.33-0.103 0.511-0.103h34.667zM38.667 29.333h-34.667c-0.736 0-1.333-0.598-1.333-1.333v-22.413l17.793 15.421c0.251 0.217 0.563 0.326 0.874 0.326s0.622-0.108 0.874-0.326l17.793-15.421v22.413c0 0.736-0.598 1.333-1.333 1.333z"></path>
        </symbol>
        <symbol id="icon-Client6" viewBox="0 0 60 32">
            <path fill="#afb1b8" style="fill: var(--color1, #afb1b8)" d="M30.485 15.415c-0.149-0.217-0.22-0.473-0.203-0.731v-1.060c0-0.325 0.067-0.572 0.202-0.741s0.365-0.253 0.693-0.252c0.308 0 0.526 0.072 0.655 0.216 0.141 0.184 0.209 0.408 0.194 0.634v0.249h-0.55v-0.252c0.002-0.083-0.003-0.165-0.016-0.247-0.008-0.056-0.036-0.108-0.079-0.147-0.056-0.042-0.128-0.063-0.199-0.057-0.075-0.005-0.15 0.016-0.21 0.060-0.048 0.043-0.080 0.1-0.091 0.162-0.016 0.087-0.023 0.174-0.022 0.262v1.287c-0.009 0.124 0.016 0.248 0.071 0.361 0.027 0.038 0.065 0.069 0.11 0.088s0.094 0.026 0.142 0.020c0.070 0.005 0.14-0.015 0.195-0.058 0.045-0.042 0.074-0.097 0.082-0.156 0.013-0.085 0.019-0.172 0.017-0.258v-0.261h0.55v0.238c0.015 0.236-0.051 0.47-0.19 0.667-0.126 0.157-0.342 0.236-0.659 0.236s-0.556-0.084-0.692-0.259z"></path>
            <path fill="#afb1b8" style="fill: var(--color1, #afb1b8)" d="M32.777 15.425c-0.139-0.165-0.209-0.406-0.209-0.724v-1.115c0-0.315 0.069-0.553 0.209-0.715s0.371-0.242 0.697-0.242c0.324 0 0.555 0.081 0.694 0.242s0.21 0.4 0.21 0.715v1.116c0 0.315-0.071 0.557-0.212 0.723s-0.371 0.249-0.692 0.249c-0.32 0-0.557-0.084-0.697-0.248zM33.731 15.158c0.050-0.103 0.072-0.217 0.066-0.33v-1.366c0.006-0.111-0.016-0.222-0.065-0.324-0.028-0.039-0.067-0.070-0.112-0.089s-0.096-0.026-0.145-0.019c-0.049-0.007-0.1 0-0.145 0.019s-0.085 0.050-0.113 0.089c-0.050 0.101-0.073 0.212-0.066 0.324v1.372c-0.007 0.114 0.016 0.227 0.066 0.33 0.032 0.035 0.072 0.063 0.116 0.082s0.093 0.029 0.141 0.029c0.049 0 0.097-0.010 0.141-0.029s0.084-0.047 0.116-0.082v-0.006z"></path>
            <path fill="#afb1b8" style="fill: var(--color1, #afb1b8)" d="M35.040 12.662h0.593l0.446 2.058 0.456-2.058h0.577l0.058 2.971h-0.426l-0.045-2.065-0.44 2.065h-0.342l-0.456-2.072-0.042 2.072h-0.431l0.054-2.971z"></path>
            <path fill="#afb1b8" style="fill: var(--color1, #afb1b8)" d="M37.833 12.662h0.923c0.532 0 0.797 0.281 0.797 0.844 0 0.539-0.28 0.808-0.84 0.807h-0.314v1.32h-0.57l0.004-2.971zM38.622 13.931c0.056 0.007 0.113 0.002 0.167-0.014s0.104-0.043 0.146-0.079c0.065-0.1 0.094-0.218 0.082-0.335 0.003-0.091-0.006-0.181-0.027-0.27-0.008-0.030-0.022-0.057-0.042-0.082s-0.044-0.045-0.072-0.060c-0.079-0.036-0.166-0.052-0.254-0.047h-0.221v0.888h0.221z"></path>
            <path fill="#afb1b8" style="fill: var(--color1, #afb1b8)" d="M40.375 12.662h0.612l0.628 2.971h-0.531l-0.124-0.685h-0.546l-0.128 0.685h-0.539l0.628-2.971zM40.898 14.603l-0.213-1.247-0.213 1.247h0.426z"></path>
            <path fill="#afb1b8" style="fill: var(--color1, #afb1b8)" d="M42.122 12.662h0.399l0.763 1.695v-1.695h0.473v2.971h-0.379l-0.768-1.769v1.769h-0.489l0.001-2.971z"></path>
            <path fill="#afb1b8" style="fill: var(--color1, #afb1b8)" d="M44.865 14.5l-0.635-1.834h0.534l0.388 1.178 0.363-1.178h0.523l-0.627 1.834v1.133h-0.547v-1.133z"></path>
            <path fill="#afb1b8" style="fill: var(--color1, #afb1b8)" d="M31.365 16.931v0.155h-0.465v1.207h-0.195v-1.207h-0.467v-0.155h1.127z"></path>
            <path fill="#afb1b8" style="fill: var(--color1, #afb1b8)" d="M32.823 18.294h-0.15c-0.015 0.001-0.030-0.004-0.042-0.013-0.011-0.008-0.020-0.019-0.025-0.031l-0.134-0.324h-0.645l-0.134 0.324c-0.004 0.014-0.011 0.026-0.020 0.037-0.012 0.009-0.027 0.014-0.042 0.013h-0.15l0.57-1.362h0.198l0.577 1.357zM31.879 17.788h0.538l-0.228-0.555c-0.017-0.042-0.031-0.085-0.042-0.128-0.008 0.026-0.015 0.051-0.022 0.072l-0.020 0.057-0.226 0.553z"></path>
            <path fill="#afb1b8" style="fill: var(--color1, #afb1b8)" d="M33.805 18.16c0.036 0.002 0.071 0.002 0.107 0 0.031-0.003 0.061-0.008 0.091-0.016 0.028-0.006 0.055-0.015 0.082-0.025 0.025-0.010 0.050-0.022 0.076-0.033v-0.306h-0.228c-0.006 0-0.011-0-0.017-0.002s-0.010-0.005-0.014-0.008c-0.004-0.003-0.007-0.007-0.009-0.011s-0.003-0.009-0.003-0.014v-0.105h0.442v0.522c-0.036 0.024-0.074 0.046-0.114 0.065s-0.083 0.035-0.126 0.046c-0.047 0.013-0.094 0.022-0.142 0.028-0.055 0.006-0.111 0.009-0.166 0.009-0.098 0.001-0.196-0.016-0.287-0.051-0.085-0.032-0.163-0.081-0.228-0.142-0.063-0.062-0.113-0.135-0.147-0.216-0.036-0.090-0.054-0.186-0.052-0.283-0.001-0.097 0.016-0.194 0.051-0.285 0.033-0.081 0.083-0.154 0.147-0.216s0.143-0.109 0.228-0.141c0.098-0.035 0.201-0.052 0.305-0.051 0.053-0 0.106 0.004 0.158 0.012 0.046 0.007 0.092 0.019 0.136 0.035 0.040 0.014 0.078 0.032 0.114 0.054 0.035 0.021 0.068 0.045 0.099 0.071l-0.055 0.084c-0.004 0.008-0.011 0.014-0.019 0.019s-0.017 0.007-0.026 0.007c-0.013-0-0.025-0.004-0.035-0.011-0.017-0.009-0.035-0.019-0.056-0.032-0.024-0.014-0.050-0.027-0.076-0.037-0.034-0.013-0.069-0.023-0.105-0.030-0.048-0.008-0.096-0.012-0.145-0.012-0.075-0.001-0.15 0.012-0.22 0.038-0.063 0.024-0.121 0.061-0.167 0.108-0.047 0.049-0.083 0.107-0.106 0.169-0.051 0.148-0.051 0.307 0 0.454 0.025 0.064 0.064 0.122 0.114 0.172 0.047 0.047 0.103 0.084 0.166 0.108 0.072 0.024 0.149 0.033 0.226 0.027z"></path>
            <path fill="#afb1b8" style="fill: var(--color1, #afb1b8)" d="M35.621 18.138h0.622v0.155h-0.812v-1.363h0.195l-0.005 1.207z"></path>
            <path fill="#afb1b8" style="fill: var(--color1, #afb1b8)" d="M36.891 18.294h-0.195v-1.363h0.195v1.363z"></path>
            <path fill="#afb1b8" style="fill: var(--color1, #afb1b8)" d="M37.616 16.938c0.011 0.006 0.022 0.015 0.029 0.025l0.833 1.027c-0.001-0.016-0.001-0.032 0-0.049 0-0.015 0-0.030 0-0.044v-0.971h0.17v1.368h-0.098c-0.015 0.001-0.029-0.002-0.042-0.008-0.012-0.007-0.022-0.016-0.031-0.026l-0.832-1.026c0 0.016 0 0.031 0 0.046s0 0.029 0 0.042v0.971h-0.163v-1.363h0.101c0.011 0 0.022 0.002 0.032 0.006z"></path>
            <path fill="#afb1b8" style="fill: var(--color1, #afb1b8)" d="M40.083 16.931v0.15h-0.691v0.45h0.56v0.145h-0.56v0.465h0.691v0.15h-0.891v-1.359h0.891z"></path>
            <path fill="#afb1b8" style="fill: var(--color1, #afb1b8)" d="M19.663 8.517l8.652 2.326v8.15l-8.652-2.325v-8.151zM19.108 7.822v9.242l9.761 2.625v-9.241l-9.761-2.626z"></path>
            <path fill="#afb1b8" style="fill: var(--color1, #afb1b8)" d="M24.34 23.979l-9.762-2.627v-9.241l9.762 2.626v9.242z"></path>
            <path fill="#afb1b8" style="fill: var(--color1, #afb1b8)" d="M19.27 8.412l8.54 2.297-3.632 3.439-8.541-2.298 3.633-3.438zM19.108 7.822l-4.531 4.289 9.762 2.626 4.53-4.289-9.761-2.626z"></path>
            <path fill="#afb1b8" style="fill: var(--color1, #afb1b8)" d="M24.889 23.459l3.98-3.769-3.98-1.071v4.84z"></path>
        </symbol>
        <symbol id="icon-Client5" viewBox="0 0 60 32">
            <path fill="#afb1b8" style="fill: var(--color1, #afb1b8)" d="M21.507 21.788c0.082 0.102 0.125 0.229 0.123 0.359 0.004 0.085-0.011 0.17-0.044 0.249s-0.083 0.149-0.147 0.205c-0.159 0.12-0.355 0.179-0.554 0.166h-0.974v-2.277h0.954c0.188-0.013 0.375 0.041 0.529 0.151 0.062 0.052 0.11 0.117 0.142 0.191s0.047 0.154 0.043 0.235c0.006 0.126-0.034 0.249-0.111 0.348-0.074 0.090-0.176 0.153-0.29 0.178 0.129 0.024 0.246 0.093 0.329 0.195zM20.364 21.444h0.408c0.093 0.007 0.185-0.020 0.259-0.076 0.031-0.028 0.054-0.062 0.070-0.101s0.021-0.080 0.018-0.122c0.003-0.041-0.003-0.083-0.018-0.121s-0.038-0.073-0.068-0.102c-0.077-0.057-0.172-0.085-0.267-0.077h-0.401v0.597zM21.071 22.317c0.033-0.029 0.058-0.064 0.075-0.104s0.024-0.084 0.021-0.127c0.003-0.044-0.005-0.088-0.022-0.128s-0.043-0.077-0.076-0.105c-0.080-0.059-0.178-0.089-0.277-0.082h-0.428v0.626h0.433c0.098 0.006 0.194-0.022 0.274-0.079z"></path>
            <path fill="#afb1b8" style="fill: var(--color1, #afb1b8)" d="M23.457 22.767l-0.531-0.89h-0.199v0.89h-0.456v-2.277h0.864c0.218-0.015 0.433 0.054 0.602 0.194 0.121 0.124 0.194 0.286 0.205 0.459s-0.038 0.344-0.141 0.483c-0.107 0.123-0.252 0.204-0.412 0.231l0.565 0.91h-0.496zM22.727 21.566h0.373c0.259 0 0.389-0.115 0.389-0.345 0.003-0.047-0.004-0.094-0.021-0.138s-0.042-0.084-0.074-0.118c-0.082-0.068-0.187-0.102-0.294-0.092h-0.378l0.004 0.693z"></path>
            <path fill="#afb1b8" style="fill: var(--color1, #afb1b8)" d="M25.952 22.308h-0.91l-0.161 0.458h-0.479l0.835-2.252h0.517l0.832 2.252h-0.479l-0.157-0.458zM25.83 21.963l-0.332-0.961-0.332 0.961h0.665z"></path>
            <path fill="#afb1b8" style="fill: var(--color1, #afb1b8)" d="M29.076 22.767h-0.453l-1.016-1.549v1.549h-0.452v-2.277h0.452l1.016 1.558v-1.558h0.453v2.277z"></path>
            <path fill="#afb1b8" style="fill: var(--color1, #afb1b8)" d="M31.662 22.222c-0.094 0.172-0.236 0.312-0.41 0.402-0.197 0.1-0.416 0.149-0.637 0.144h-0.807v-2.277h0.807c0.221-0.006 0.439 0.042 0.637 0.14 0.173 0.088 0.316 0.226 0.41 0.397 0.093 0.185 0.142 0.39 0.142 0.597s-0.049 0.412-0.142 0.597zM31.143 22.167c0.129-0.151 0.2-0.344 0.2-0.543s-0.071-0.392-0.2-0.543c-0.156-0.137-0.36-0.207-0.567-0.194h-0.315v1.474h0.315c0.207 0.013 0.411-0.057 0.567-0.194z"></path>
            <path fill="#afb1b8" style="fill: var(--color1, #afb1b8)" d="M26.236 7.822c0 0 5.849 2.217 5.725 5.426v5.427c0 0-5.845-2.218-5.723-5.427l-0.002-5.426z"></path>
            <path fill="#afb1b8" style="fill: var(--color1, #afb1b8)" d="M37.173 17.404c1.105-0.763 2.382-1.236 3.716-1.375v-1.699c-1.537 0.595-2.841 1.673-3.716 3.074z"></path>
            <path fill="#afb1b8" style="fill: var(--color1, #afb1b8)" d="M36.509 17.916c0.904-1.828 2.472-3.239 4.38-3.942v-4.895c0 0-8.33 3.158-8.154 7.728v7.726c0 0 0.371-0.141 0.955-0.406 0-0.247 0-0.496 0.027-0.747 0.172-2.121 1.177-4.087 2.792-5.465z"></path>
            <path fill="#afb1b8" style="fill: var(--color1, #afb1b8)" d="M35.717 20.786c0.044-0.536 0.141-1.066 0.291-1.582-1.006 1.19-1.615 2.666-1.742 4.222-0.012 0.147-0.019 0.294-0.022 0.445 0.473-0.228 1.024-0.513 1.602-0.848-0.148-0.736-0.191-1.489-0.129-2.237z"></path>
            <path fill="#afb1b8" style="fill: var(--color1, #afb1b8)" d="M36.048 20.814c-0.055 0.677-0.021 1.358 0.103 2.026 2.276-1.367 4.833-3.48 4.735-6.033v-0.223c-1.626 0.183-3.147 0.896-4.33 2.031-0.277 0.703-0.448 1.444-0.508 2.198z"></path>
        </symbol>
        <symbol id="icon-Client4" viewBox="0 0 60 32">
            <path fill="#afb1b8" style="fill: var(--color2, #afb1b8)" d="M20.41 13.095h-0.001c-0.804 0-1.456 0.635-1.456 1.419v0.001c0 0.784 0.652 1.419 1.456 1.419h0.001c0.804 0 1.456-0.635 1.456-1.419v-0.001c0-0.784-0.652-1.419-1.456-1.419z"></path>
            <path fill="#afb1b8" style="fill: var(--color2, #afb1b8)" d="M31.16 12.642c-0.002-1.089-0.447-2.132-1.237-2.902s-1.861-1.204-2.978-1.206v0c-1.118 0.002-2.189 0.435-2.979 1.205s-1.235 1.814-1.238 2.903v6.004c0 0 8.43-0.915 8.431-6.003v-0.001z"></path>
            <path fill="#afb1b8" style="fill: var(--color2, #afb1b8)" d="M16 20.616c0.002 0.758 0.312 1.484 0.861 2.019s1.294 0.838 2.072 0.84c0.777-0.002 1.522-0.304 2.071-0.84s0.859-1.261 0.862-2.019v-4.178c0 0-5.866 0.637-5.866 4.177zM18.933 21.364c-0.152 0-0.3-0.044-0.427-0.126s-0.225-0.199-0.283-0.336-0.073-0.287-0.044-0.432c0.030-0.145 0.103-0.279 0.21-0.383s0.244-0.176 0.393-0.205c0.149-0.029 0.303-0.014 0.444 0.043s0.26 0.153 0.345 0.276c0.084 0.123 0.129 0.268 0.129 0.416 0 0.099-0.019 0.196-0.058 0.287s-0.095 0.174-0.166 0.244c-0.071 0.070-0.156 0.125-0.25 0.163s-0.194 0.057-0.295 0.057v-0.003z"></path>
            <path fill="#afb1b8" style="fill: var(--color2, #afb1b8)" d="M24.921 20.9h-0.6v0.62h-0.313v-1.517h0.988v0.253h-0.675v0.392h0.6v0.252zM26.423 20.796c0 0.149-0.026 0.28-0.079 0.393s-0.128 0.199-0.227 0.26c-0.098 0.061-0.21 0.092-0.338 0.092-0.126 0-0.238-0.030-0.336-0.091s-0.175-0.147-0.229-0.258c-0.054-0.113-0.082-0.242-0.082-0.388v-0.075c0-0.149 0.027-0.281 0.080-0.394s0.13-0.201 0.228-0.261c0.099-0.061 0.211-0.092 0.337-0.092s0.239 0.031 0.336 0.092c0.099 0.060 0.175 0.148 0.228 0.261s0.081 0.244 0.081 0.393v0.068zM26.106 20.727c0-0.159-0.028-0.28-0.085-0.363s-0.138-0.124-0.244-0.124c-0.105 0-0.186 0.041-0.243 0.123s-0.086 0.201-0.086 0.358v0.074c0 0.155 0.028 0.275 0.085 0.36s0.139 0.128 0.246 0.128c0.105 0 0.185-0.041 0.242-0.123s0.085-0.203 0.085-0.36v-0.074zM27.436 21.122c0-0.059-0.021-0.104-0.063-0.135s-0.117-0.065-0.225-0.1c-0.108-0.035-0.194-0.070-0.257-0.104-0.172-0.093-0.258-0.218-0.258-0.376 0-0.082 0.023-0.155 0.069-0.219s0.113-0.115 0.199-0.151c0.087-0.036 0.184-0.054 0.292-0.054s0.205 0.020 0.29 0.059c0.085 0.039 0.15 0.094 0.197 0.166s0.071 0.153 0.071 0.244h-0.313c0-0.069-0.022-0.123-0.066-0.161s-0.105-0.058-0.184-0.058c-0.076 0-0.136 0.016-0.178 0.049s-0.064 0.074-0.064 0.127c0 0.049 0.025 0.091 0.074 0.124s0.123 0.065 0.22 0.094c0.178 0.053 0.307 0.12 0.389 0.199s0.122 0.178 0.122 0.296c0 0.131-0.050 0.234-0.149 0.309s-0.233 0.111-0.401 0.111c-0.117 0-0.223-0.021-0.319-0.064s-0.169-0.102-0.22-0.176c-0.050-0.074-0.075-0.16-0.075-0.258h0.314c0 0.167 0.1 0.251 0.3 0.251 0.074 0 0.132-0.015 0.174-0.045s0.063-0.073 0.063-0.127zM29.104 20.256h-0.465v1.264h-0.313v-1.264h-0.458v-0.253h1.235v0.253zM30.196 20.863h-0.6v0.406h0.704v0.251h-1.017v-1.517h1.015v0.253h-0.702v0.361h0.6v0.245zM31.044 20.965h-0.249v0.555h-0.313v-1.517h0.564c0.179 0 0.317 0.040 0.415 0.12s0.146 0.193 0.146 0.339c0 0.103-0.023 0.19-0.068 0.259s-0.112 0.124-0.203 0.165l0.328 0.62v0.015h-0.335l-0.284-0.555zM30.796 20.711h0.252c0.078 0 0.139-0.020 0.182-0.059s0.065-0.096 0.065-0.166c0-0.072-0.020-0.128-0.061-0.169s-0.102-0.061-0.186-0.061h-0.251v0.455zM32.689 20.985v0.534h-0.313v-1.517h0.592c0.114 0 0.214 0.021 0.3 0.063s0.153 0.101 0.2 0.178c0.047 0.076 0.070 0.164 0.070 0.261 0 0.149-0.051 0.266-0.153 0.352s-0.242 0.128-0.422 0.128h-0.274zM32.689 20.732h0.279c0.083 0 0.145-0.019 0.189-0.058s0.066-0.094 0.066-0.167c0-0.074-0.022-0.134-0.066-0.18s-0.104-0.069-0.181-0.071h-0.286v0.476zM34.666 20.863h-0.6v0.406h0.704v0.251h-1.017v-1.517h1.015v0.253h-0.702v0.361h0.6v0.245zM36.116 20.256h-0.464v1.264h-0.313v-1.264h-0.458v-0.253h1.235v0.253zM37.208 20.863h-0.6v0.406h0.704v0.251h-1.017v-1.517h1.015v0.253h-0.702v0.361h0.6v0.245zM38.057 20.965h-0.249v0.555h-0.313v-1.517h0.564c0.179 0 0.318 0.040 0.415 0.12s0.146 0.193 0.146 0.339c0 0.103-0.022 0.19-0.068 0.259s-0.112 0.124-0.203 0.165l0.328 0.62v0.015h-0.336l-0.284-0.555zM37.808 20.711h0.252c0.079 0 0.139-0.020 0.182-0.059s0.064-0.096 0.064-0.166c0-0.072-0.020-0.128-0.061-0.169s-0.102-0.061-0.187-0.061h-0.251v0.455zM39.644 21.122c0-0.059-0.021-0.104-0.063-0.135s-0.117-0.065-0.225-0.1c-0.108-0.035-0.194-0.070-0.257-0.104-0.172-0.093-0.258-0.218-0.258-0.376 0-0.082 0.023-0.155 0.069-0.219s0.113-0.115 0.199-0.151c0.087-0.036 0.184-0.054 0.292-0.054s0.205 0.020 0.289 0.059c0.085 0.039 0.15 0.094 0.197 0.166s0.071 0.153 0.071 0.244h-0.313c0-0.069-0.022-0.123-0.065-0.161s-0.105-0.058-0.185-0.058c-0.076 0-0.136 0.016-0.178 0.049s-0.064 0.074-0.064 0.127c0 0.049 0.025 0.091 0.074 0.124 0.050 0.033 0.123 0.065 0.22 0.094 0.178 0.053 0.307 0.12 0.388 0.199s0.122 0.178 0.122 0.296c0 0.131-0.050 0.234-0.149 0.309s-0.233 0.111-0.401 0.111c-0.117 0-0.223-0.021-0.319-0.064s-0.169-0.102-0.22-0.176c-0.050-0.074-0.075-0.16-0.075-0.258h0.313c0 0.167 0.1 0.251 0.3 0.251 0.074 0 0.132-0.015 0.174-0.045s0.063-0.073 0.063-0.127z"></path>
        </symbol>
        <symbol id="icon-Client3" viewBox="0 0 60 32">
            <path fill="#afb1b8" style="fill: var(--color1, #afb1b8)" d="M25.367 23.394c0.005 0 0.011 0.001 0.015 0.003s0.009 0.005 0.013 0.009l0.073 0.077c-0.057 0.062-0.127 0.112-0.206 0.146-0.092 0.037-0.192 0.055-0.292 0.052-0.094 0.002-0.187-0.015-0.274-0.049-0.078-0.031-0.149-0.078-0.207-0.138-0.059-0.062-0.104-0.134-0.134-0.213-0.032-0.088-0.048-0.18-0.047-0.273-0.001-0.093 0.016-0.186 0.050-0.274 0.032-0.079 0.080-0.151 0.142-0.213 0.062-0.060 0.137-0.107 0.22-0.139 0.090-0.033 0.186-0.050 0.283-0.049 0.090-0.002 0.179 0.013 0.262 0.044 0.072 0.030 0.139 0.072 0.197 0.123l-0.061 0.082c-0.004 0.006-0.009 0.011-0.016 0.015-0.007 0.005-0.016 0.007-0.025 0.006s-0.019-0.004-0.027-0.009l-0.033-0.022-0.046-0.028c-0.020-0.010-0.040-0.019-0.061-0.027-0.027-0.009-0.055-0.017-0.083-0.022-0.036-0.006-0.072-0.009-0.109-0.009-0.070-0.001-0.139 0.012-0.203 0.037-0.060 0.023-0.114 0.058-0.159 0.103-0.046 0.047-0.081 0.103-0.103 0.164-0.026 0.069-0.038 0.143-0.037 0.216-0.001 0.075 0.012 0.149 0.037 0.22 0.022 0.060 0.057 0.116 0.102 0.163 0.042 0.044 0.094 0.079 0.152 0.101 0.060 0.024 0.124 0.035 0.188 0.035 0.037 0.001 0.075-0.002 0.112-0.007 0.060-0.007 0.118-0.027 0.169-0.058 0.026-0.016 0.050-0.034 0.072-0.054 0.009-0.009 0.022-0.014 0.035-0.014z"></path>
            <path fill="#afb1b8" style="fill: var(--color1, #afb1b8)" d="M27.48 23.008c0.001 0.092-0.016 0.184-0.049 0.271-0.030 0.079-0.077 0.15-0.138 0.21s-0.135 0.107-0.216 0.138c-0.179 0.065-0.377 0.065-0.556 0-0.081-0.031-0.154-0.079-0.215-0.139-0.061-0.061-0.108-0.133-0.139-0.213-0.066-0.176-0.066-0.367 0-0.543 0.031-0.079 0.078-0.152 0.139-0.213 0.061-0.058 0.134-0.103 0.215-0.133 0.179-0.066 0.377-0.066 0.556 0 0.081 0.031 0.155 0.079 0.216 0.139s0.107 0.132 0.138 0.21c0.034 0.087 0.051 0.18 0.049 0.273zM27.288 23.008c0.001-0.074-0.010-0.148-0.035-0.218-0.020-0.060-0.054-0.116-0.098-0.163-0.043-0.045-0.096-0.080-0.155-0.103-0.13-0.048-0.274-0.048-0.404 0-0.059 0.023-0.112 0.058-0.155 0.103-0.045 0.047-0.078 0.103-0.099 0.163-0.047 0.142-0.047 0.294 0 0.436 0.021 0.060 0.054 0.116 0.099 0.163 0.043 0.044 0.096 0.079 0.155 0.102 0.13 0.046 0.274 0.046 0.404 0 0.059-0.023 0.112-0.057 0.155-0.102 0.044-0.047 0.077-0.103 0.098-0.163 0.025-0.070 0.036-0.144 0.035-0.218z"></path>
            <path fill="#afb1b8" style="fill: var(--color1, #afb1b8)" d="M28.921 23.237l0.019 0.049c0.007-0.017 0.014-0.033 0.021-0.049s0.015-0.032 0.024-0.048l0.467-0.809c0.009-0.014 0.017-0.023 0.027-0.025 0.012-0.004 0.025-0.005 0.038-0.004h0.138v1.316h-0.164v-0.968c0-0.012 0-0.026 0-0.041s-0.001-0.030 0-0.045l-0.47 0.821c-0.006 0.012-0.016 0.023-0.028 0.030s-0.026 0.011-0.040 0.011h-0.027c-0.014 0-0.028-0.004-0.040-0.011s-0.022-0.018-0.027-0.030l-0.484-0.826c0 0.016 0 0.031 0 0.047s0 0.030 0 0.042v0.968h-0.158v-1.314h0.138c0.013-0.001 0.026 0.001 0.038 0.004 0.011 0.005 0.020 0.014 0.026 0.025l0.477 0.81c0.009 0.015 0.017 0.031 0.024 0.047z"></path>
            <path fill="#afb1b8" style="fill: var(--color1, #afb1b8)" d="M30.68 23.171v0.493h-0.183v-1.315h0.408c0.077-0.001 0.154 0.008 0.228 0.029 0.059 0.016 0.114 0.044 0.161 0.082 0.041 0.036 0.072 0.080 0.091 0.129 0.022 0.054 0.032 0.111 0.031 0.168 0.001 0.058-0.011 0.115-0.034 0.168-0.022 0.050-0.056 0.095-0.099 0.132-0.047 0.040-0.102 0.069-0.162 0.087-0.071 0.022-0.146 0.032-0.22 0.030l-0.221-0.003zM30.68 23.030h0.221c0.048 0.001 0.096-0.006 0.142-0.020 0.038-0.012 0.073-0.031 0.102-0.057 0.027-0.024 0.049-0.054 0.062-0.087 0.015-0.035 0.022-0.073 0.022-0.111 0.002-0.037-0.004-0.073-0.018-0.107s-0.036-0.065-0.064-0.090c-0.070-0.052-0.158-0.077-0.246-0.071h-0.221v0.542z"></path>
            <path fill="#afb1b8" style="fill: var(--color1, #afb1b8)" d="M33.138 23.666h-0.145c-0.014 0-0.029-0.004-0.040-0.012-0.010-0.008-0.019-0.019-0.024-0.030l-0.124-0.318h-0.625l-0.129 0.318c-0.005 0.012-0.013 0.022-0.023 0.030-0.012 0.009-0.026 0.014-0.041 0.013h-0.145l0.549-1.317h0.19l0.556 1.317zM32.233 23.177h0.516l-0.218-0.536c-0.017-0.040-0.030-0.082-0.041-0.124l-0.021 0.069c-0.006 0.021-0.014 0.040-0.020 0.056l-0.216 0.535z"></path>
            <path fill="#afb1b8" style="fill: var(--color1, #afb1b8)" d="M33.928 22.356c0.011 0.006 0.020 0.014 0.027 0.024l0.8 0.992c0-0.016 0-0.031 0-0.046s0-0.030 0-0.044v-0.932h0.164v1.317h-0.091c-0.013 0-0.026-0.002-0.037-0.008s-0.021-0.015-0.029-0.024l-0.799-0.992c0.001 0.015 0.001 0.030 0 0.045s0 0.028 0 0.040v0.938h-0.164v-1.317h0.097c0.011-0 0.023 0.002 0.033 0.006z"></path>
            <path fill="#afb1b8" style="fill: var(--color1, #afb1b8)" d="M36.268 23.143v0.523h-0.183v-0.523l-0.506-0.793h0.164c0.014-0.001 0.028 0.003 0.039 0.011 0.010 0.008 0.019 0.018 0.025 0.030l0.316 0.512c0.013 0.022 0.024 0.042 0.033 0.061s0.016 0.037 0.023 0.056l0.024-0.057c0.009-0.021 0.019-0.041 0.031-0.060l0.312-0.515c0.006-0.010 0.015-0.020 0.024-0.028 0.011-0.009 0.025-0.014 0.039-0.013h0.166l-0.507 0.796z"></path>
            <path fill="#afb1b8" style="fill: var(--color1, #afb1b8)" d="M28.831 20.14c0.080 0.010 0.16 0.017 0.241 0.024 1.234-0.526 2.278-1.387 3.001-2.475s1.094-2.355 1.066-3.643l-1.36-1.296c0.276 1.371 0.147 2.788-0.374 4.093s-1.412 2.446-2.575 3.296z"></path>
            <path fill="#afb1b8" style="fill: var(--color1, #afb1b8)" d="M28.345 20.080l0.037 0.007c1.242-0.847 2.19-2.029 2.719-3.394s0.617-2.85 0.251-4.263l-1.937-1.845c0.783 1.517 1.099 3.215 0.909 4.895s-0.876 3.276-1.979 4.6z"></path>
            <path fill="#afb1b8" style="fill: var(--color1, #afb1b8)" d="M34.914 15.568c-0.329 1.415-1.128 2.691-2.279 3.639-0.336 0.278-0.699 0.526-1.083 0.741 0.937-0.262 1.798-0.726 2.517-1.356s1.277-1.408 1.63-2.276l-0.786-0.748z"></path>
            <path fill="#afb1b8" style="fill: var(--color1, #afb1b8)" d="M34.606 15.36l-1.118-1.066c-0.021 1.215-0.384 2.402-1.050 3.438s-1.611 1.884-2.737 2.454h0.005c0.251-0 0.502-0.014 0.751-0.043 1.052-0.409 1.982-1.060 2.706-1.895s1.22-1.827 1.443-2.889z"></path>
            <path fill="#afb1b8" style="fill: var(--color1, #afb1b8)" d="M28.507 9.806l-1.334-1.273c-1.193 0.439-2.219 1.211-2.943 2.215s-1.114 2.193-1.118 3.411v0c0.004 1.346 0.48 2.653 1.352 3.712s2.089 1.812 3.46 2.139c1.224-1.421 1.94-3.176 2.045-5.011s-0.407-3.654-1.461-5.193z"></path>
            <path fill="#afb1b8" style="fill: var(--color1, #afb1b8)" d="M37.689 15.164c-0.005-1.597-0.673-3.128-1.858-4.257s-2.792-1.766-4.468-1.771c-0.775-0.001-1.543 0.135-2.265 0.402l8.17 7.783c0.279-0.688 0.423-1.42 0.422-2.157z"></path>
        </symbol>
        <symbol id="icon-Client2" viewBox="0 0 60 32">
            <path fill="#afb1b8" style="fill: var(--color1, #afb1b8)" d="M29.147 7.799h0.049c0.090 0 0.187 0.009 0.283 0.017 0.424 0.030 0.845 0.093 1.259 0.19v-1.018c-0.426-0.107-0.861-0.176-1.3-0.207-0.166-0.013-0.344-0.021-0.525-0.025h-0.152c-0.88 0.003-1.756 0.116-2.608 0.336-0.971 0.242-1.902 0.621-2.768 1.126v10.097c0.833-0.453 1.719-0.798 2.638-1.028 0.725-0.185 1.467-0.299 2.214-0.34h0.030c0.125-0.006 0.25-0.010 0.379-0.011v-1.034c-0.971 0.012-1.937 0.141-2.878 0.382-0.348 0.090-0.684 0.188-1 0.297l-0.36 0.122v-7.872l0.154-0.074c1.174-0.557 2.443-0.88 3.739-0.954 0.011-0.001 0.022-0.001 0.032 0 0.143-0.007 0.287-0.011 0.428-0.011h0.162c0.075 0.002 0.149 0.004 0.224 0.008z"></path>
            <path fill="#afb1b8" style="fill: var(--color1, #afb1b8)" d="M31.684 8.865c-0.237 0-0.47-0.008-0.696-0.025-0.27-0.020-0.547-0.052-0.809-0.097-0.16-0.027-0.317-0.060-0.47-0.095v9.981c0.647 0.16 1.312 0.239 1.979 0.233 0.88-0.004 1.756-0.116 2.608-0.335 0.971-0.242 1.903-0.621 2.769-1.126v-9.917c-0.833 0.452-1.719 0.798-2.637 1.029-0.896 0.23-1.817 0.348-2.742 0.352zM35.675 9.038l0.36-0.121v7.875l-0.154 0.074c-0.59 0.281-1.206 0.502-1.84 0.661-0.769 0.199-1.56 0.301-2.354 0.305-0.237 0-0.473-0.010-0.702-0.030l-0.246-0.022v-8.098l0.287 0.019c0.209 0.014 0.425 0.020 0.659 0.020 1.008-0.004 2.012-0.132 2.989-0.383 0.336-0.089 0.669-0.188 1-0.299z"></path>
            <path fill="#afb1b8" style="fill: var(--color1, #afb1b8)" d="M24.084 21.764c-0.052-0.054-0.114-0.096-0.183-0.124s-0.143-0.041-0.217-0.038c-0.079-0.001-0.158 0.014-0.231 0.043-0.067 0.027-0.129 0.067-0.18 0.118s-0.090 0.113-0.116 0.181c-0.028 0.071-0.042 0.147-0.041 0.223v1.349c-0.003 0.095 0.015 0.19 0.053 0.277 0.032 0.069 0.078 0.131 0.135 0.181 0.054 0.045 0.117 0.078 0.185 0.096 0.066 0.018 0.133 0.028 0.201 0.028 0.075 0.001 0.149-0.015 0.218-0.047 0.067-0.029 0.129-0.072 0.18-0.125 0.050-0.052 0.090-0.114 0.118-0.181 0.029-0.068 0.044-0.141 0.043-0.215v-0.151h-0.353v0.12c0.001 0.041-0.006 0.082-0.021 0.12-0.012 0.029-0.029 0.055-0.051 0.076-0.022 0.018-0.047 0.031-0.074 0.039-0.024 0.008-0.049 0.012-0.074 0.013-0.031 0.004-0.063-0.001-0.092-0.014s-0.054-0.033-0.073-0.059c-0.033-0.054-0.050-0.117-0.047-0.181v-1.258c-0.002-0.070 0.013-0.139 0.043-0.202 0.018-0.028 0.044-0.051 0.075-0.066s0.064-0.020 0.098-0.016c0.030-0.001 0.061 0.005 0.088 0.018s0.051 0.033 0.069 0.057c0.039 0.052 0.060 0.116 0.058 0.181v0.117h0.349v-0.137c0.001-0.081-0.014-0.161-0.043-0.236-0.026-0.071-0.066-0.135-0.118-0.19z"></path>
            <path fill="#afb1b8" style="fill: var(--color1, #afb1b8)" d="M26.179 21.749c-0.112-0.095-0.254-0.147-0.401-0.148-0.072 0-0.143 0.013-0.21 0.038-0.068 0.025-0.132 0.062-0.186 0.11-0.058 0.052-0.105 0.117-0.137 0.189-0.036 0.082-0.053 0.172-0.051 0.261v1.294c-0.002 0.091 0.015 0.181 0.051 0.265 0.032 0.070 0.079 0.131 0.137 0.181 0.054 0.050 0.117 0.089 0.186 0.114 0.067 0.025 0.139 0.038 0.21 0.038s0.143-0.013 0.21-0.038c0.070-0.026 0.135-0.064 0.191-0.114s0.102-0.112 0.133-0.181c0.036-0.084 0.054-0.174 0.051-0.265v-1.294c0.002-0.090-0.016-0.179-0.051-0.261-0.031-0.071-0.077-0.136-0.133-0.189zM26.015 23.493c0.003 0.035-0.002 0.069-0.014 0.102s-0.031 0.062-0.056 0.086c-0.047 0.039-0.105 0.060-0.166 0.060s-0.119-0.021-0.166-0.060c-0.025-0.024-0.044-0.053-0.056-0.086s-0.017-0.067-0.014-0.102v-1.294c-0.003-0.035 0.002-0.069 0.014-0.102s0.031-0.062 0.056-0.086c0.047-0.039 0.105-0.060 0.166-0.060s0.119 0.021 0.166 0.060c0.025 0.024 0.044 0.053 0.056 0.086s0.017 0.067 0.014 0.102v1.294z"></path>
            <path fill="#afb1b8" style="fill: var(--color1, #afb1b8)" d="M28.931 24.071v-2.449h-0.339l-0.445 1.297h-0.006l-0.449-1.297h-0.335v2.449h0.35v-1.49h0.006l0.343 1.053h0.174l0.345-1.053h0.006v1.49h0.35z"></path>
            <path fill="#afb1b8" style="fill: var(--color1, #afb1b8)" d="M30.918 21.793c-0.054-0.060-0.122-0.106-0.198-0.134-0.082-0.027-0.168-0.039-0.254-0.038h-0.52v2.449h0.349v-0.957h0.18c0.109 0.005 0.217-0.018 0.315-0.067 0.079-0.044 0.145-0.109 0.192-0.187 0.040-0.065 0.068-0.138 0.080-0.213 0.014-0.092 0.020-0.185 0.019-0.278 0.003-0.118-0.008-0.235-0.034-0.35-0.023-0.085-0.068-0.162-0.129-0.225zM30.738 22.54c-0.002 0.044-0.013 0.088-0.032 0.128-0.020 0.038-0.052 0.068-0.090 0.086-0.052 0.023-0.108 0.034-0.165 0.031h-0.159v-0.833h0.18c0.054-0.003 0.108 0.008 0.157 0.031 0.036 0.021 0.065 0.052 0.082 0.090 0.019 0.043 0.029 0.089 0.031 0.137 0 0.052 0 0.106 0 0.163s0.004 0.116 0 0.168h-0.004z"></path>
            <path fill="#afb1b8" style="fill: var(--color1, #afb1b8)" d="M32.572 21.622h-0.286l-0.54 2.449h0.349l0.103-0.526h0.476l0.103 0.526h0.349l-0.553-2.449zM32.25 23.211l0.172-0.888h0.006l0.171 0.888h-0.349z"></path>
            <path fill="#afb1b8" style="fill: var(--color1, #afb1b8)" d="M34.827 23.097h-0.006l-0.527-1.476h-0.335v2.449h0.349v-1.473h0.007l0.533 1.473h0.328v-2.449h-0.349v1.476z"></path>
            <path fill="#afb1b8" style="fill: var(--color1, #afb1b8)" d="M36.959 21.622l-0.281 0.974h-0.007l-0.281-0.974h-0.37l0.479 1.414v1.035h0.349v-1.035l0.479-1.414h-0.369z"></path>
            <path fill="#afb1b8" style="fill: var(--color1, #afb1b8)" d="M23.111 24.762h0.168v0.472h0.114v-0.472h0.167v-0.097h-0.45v0.097z"></path>
            <path fill="#afb1b8" style="fill: var(--color1, #afb1b8)" d="M24.525 24.666l-0.22 0.569h0.121l0.047-0.129h0.227l0.049 0.129h0.124l-0.226-0.569h-0.121zM24.507 25.009l0.077-0.211 0.077 0.211h-0.155z"></path>
            <path fill="#afb1b8" style="fill: var(--color1, #afb1b8)" d="M25.923 25.025h0.131v0.073c-0.038 0.031-0.086 0.048-0.135 0.048-0.023 0.001-0.046-0.003-0.067-0.012s-0.039-0.024-0.054-0.042c-0.030-0.043-0.045-0.096-0.042-0.148 0-0.127 0.055-0.19 0.164-0.19 0.029-0.003 0.057 0.005 0.081 0.021s0.041 0.041 0.048 0.069l0.112-0.022c-0.024-0.111-0.104-0.167-0.241-0.167-0.073-0.002-0.144 0.024-0.199 0.073-0.029 0.028-0.051 0.063-0.065 0.1s-0.020 0.078-0.017 0.118c-0.003 0.078 0.023 0.154 0.073 0.213 0.028 0.029 0.062 0.051 0.099 0.065s0.077 0.020 0.117 0.018c0.089 0.003 0.175-0.030 0.241-0.090v-0.224h-0.246v0.096z"></path>
            <path fill="#afb1b8" style="fill: var(--color1, #afb1b8)" d="M27.35 24.666h-0.115v0.569h0.398v-0.097h-0.283v-0.472z"></path>
            <path fill="#afb1b8" style="fill: var(--color1, #afb1b8)" d="M28.557 24.666h-0.115v0.569h0.115v-0.569z"></path>
            <path fill="#afb1b8" style="fill: var(--color1, #afb1b8)" d="M29.737 25.046l-0.233-0.38h-0.112v0.569h0.107v-0.372l0.228 0.372h0.114v-0.569h-0.105v0.38z"></path>
            <path fill="#afb1b8" style="fill: var(--color1, #afb1b8)" d="M30.804 24.984h0.283v-0.097h-0.283v-0.125h0.305v-0.097h-0.42v0.569h0.432v-0.097h-0.317v-0.154z"></path>
            <path fill="#afb1b8" style="fill: var(--color1, #afb1b8)" d="M33.391 24.89h-0.224v-0.224h-0.114v0.569h0.114v-0.249h0.224v0.249h0.114v-0.569h-0.114v0.224z"></path>
            <path fill="#afb1b8" style="fill: var(--color1, #afb1b8)" d="M34.464 24.984h0.284v-0.097h-0.284v-0.125h0.306v-0.097h-0.42v0.569h0.431v-0.097h-0.317v-0.154z"></path>
            <path fill="#afb1b8" style="fill: var(--color1, #afb1b8)" d="M35.919 24.984c0.099-0.015 0.149-0.068 0.149-0.158 0.003-0.024-0.001-0.049-0.011-0.071s-0.025-0.041-0.045-0.056c-0.051-0.026-0.109-0.037-0.166-0.033h-0.241v0.569h0.114v-0.238h0.022c0.024-0.002 0.049 0.003 0.071 0.013 0.017 0.010 0.031 0.025 0.041 0.042l0.124 0.181h0.137l-0.069-0.111c-0.031-0.055-0.074-0.102-0.126-0.137zM35.804 24.905h-0.084v-0.143h0.090c0.039-0.003 0.079 0.001 0.116 0.014 0.008 0.007 0.015 0.017 0.019 0.027s0.006 0.021 0.006 0.032c-0 0.011-0.004 0.022-0.009 0.032s-0.013 0.018-0.022 0.025c-0.038 0.012-0.077 0.016-0.116 0.014z"></path>
            <path fill="#afb1b8" style="fill: var(--color1, #afb1b8)" d="M37.017 24.984h0.283v-0.097h-0.283v-0.125h0.306v-0.097h-0.421v0.569h0.432v-0.097h-0.316v-0.154z"></path>
        </symbol>
        <symbol id="icon-Client1" viewBox="0 0 60 32">
            <path fill="#afb1b8" style="fill: var(--color1, #afb1b8)" d="M24.533 7.111l2.598 2.46h7.248v6.861l2.598 2.46v-11.781h-12.444z"></path>
            <path fill="#afb1b8" style="fill: var(--color1, #afb1b8)" d="M22.4 9.467v11.444h12.089v-4.549l-7.281-6.892-4.808-0.003zM32.186 19.238h-7.873v-7.697h0.556v7.176h7.317v0.521z"></path>
            <path fill="#afb1b8" style="fill: var(--color1, #afb1b8)" d="M25.881 23.034l0.291-0.599h0.243l-0.424 0.799v0.465h-0.22v-0.465l-0.424-0.799h0.244l0.291 0.599zM27.13 23.405h-0.49l-0.102 0.294h-0.228l0.477-1.264h0.197l0.478 1.264h-0.229l-0.103-0.294zM26.702 23.228h0.366l-0.183-0.524-0.183 0.524zM27.995 23.358c0-0.058 0.016-0.112 0.048-0.161s0.095-0.107 0.188-0.174c-0.049-0.062-0.084-0.115-0.103-0.158s-0.029-0.085-0.029-0.126c0-0.099 0.030-0.177 0.090-0.234s0.141-0.087 0.243-0.087c0.092 0 0.167 0.027 0.226 0.082s0.089 0.121 0.089 0.201c0 0.053-0.013 0.101-0.040 0.146s-0.070 0.088-0.131 0.132l-0.086 0.063 0.244 0.288c0.035-0.069 0.053-0.147 0.053-0.232h0.183c0 0.156-0.036 0.283-0.109 0.383l0.186 0.22h-0.245l-0.071-0.084c-0.090 0.068-0.198 0.102-0.323 0.102s-0.225-0.033-0.3-0.099c-0.075-0.067-0.112-0.153-0.112-0.26zM28.413 23.548c0.071 0 0.138-0.024 0.2-0.071l-0.276-0.326-0.027 0.019c-0.069 0.053-0.104 0.113-0.104 0.181 0 0.058 0.019 0.106 0.056 0.142s0.088 0.055 0.151 0.055zM28.297 22.734c0 0.049 0.030 0.11 0.089 0.183l0.096-0.066 0.027-0.022c0.036-0.032 0.054-0.073 0.054-0.122 0-0.033-0.012-0.061-0.037-0.084s-0.056-0.036-0.095-0.036c-0.041 0-0.074 0.014-0.098 0.042s-0.036 0.063-0.036 0.105zM30.593 23.288c-0.013 0.135-0.063 0.24-0.149 0.316s-0.202 0.113-0.346 0.113c-0.101 0-0.189-0.024-0.267-0.071s-0.135-0.116-0.177-0.204-0.063-0.19-0.065-0.306v-0.118c0-0.119 0.021-0.224 0.063-0.315s0.103-0.161 0.181-0.21c0.079-0.049 0.171-0.074 0.274-0.074 0.14 0 0.252 0.038 0.337 0.114s0.135 0.183 0.148 0.321h-0.219c-0.010-0.091-0.037-0.156-0.080-0.196s-0.104-0.061-0.187-0.061c-0.095 0-0.169 0.035-0.22 0.105s-0.077 0.172-0.078 0.306v0.112c0 0.137 0.024 0.241 0.073 0.313s0.121 0.108 0.215 0.108c0.086 0 0.151-0.019 0.194-0.058s0.071-0.103 0.082-0.194h0.219zM31.799 23.1c0 0.124-0.021 0.233-0.064 0.326s-0.104 0.165-0.184 0.215c-0.079 0.050-0.171 0.075-0.274 0.075-0.102 0-0.194-0.025-0.274-0.075s-0.142-0.122-0.186-0.214c-0.043-0.093-0.065-0.199-0.066-0.32v-0.071c0-0.123 0.022-0.232 0.065-0.326s0.106-0.166 0.185-0.216c0.080-0.050 0.171-0.076 0.274-0.076s0.194 0.025 0.273 0.075c0.080 0.049 0.142 0.12 0.185 0.213s0.065 0.201 0.066 0.324v0.070zM31.579 23.034c0-0.14-0.027-0.247-0.080-0.322s-0.128-0.112-0.225-0.112c-0.095 0-0.169 0.037-0.223 0.112s-0.080 0.179-0.082 0.315v0.073c0 0.139 0.027 0.246 0.081 0.322s0.13 0.114 0.226 0.114c0.097 0 0.172-0.037 0.224-0.111s0.079-0.182 0.079-0.325v-0.066z"></path>
        </symbol>
        <symbol id="icon-logo6" viewBox="0 0 61 32">
            <path fill="#afb1b8" style="fill: var(--color1, #afb1b8)" d="M31.088 15.096c-0.288-0.421-0.426-0.918-0.393-1.419v-2.057c0-0.63 0.13-1.11 0.391-1.437s0.709-0.491 1.344-0.49c0.597 0 1.020 0.139 1.271 0.418 0.273 0.356 0.406 0.791 0.376 1.23v0.483h-1.067v-0.49c0.004-0.16-0.007-0.321-0.031-0.479-0.015-0.108-0.069-0.209-0.153-0.285-0.11-0.082-0.248-0.121-0.387-0.111-0.146-0.010-0.291 0.031-0.407 0.117-0.093 0.084-0.155 0.194-0.177 0.314-0.031 0.168-0.045 0.338-0.042 0.508v2.496c-0.017 0.241 0.030 0.482 0.137 0.701 0.053 0.074 0.127 0.133 0.213 0.17s0.182 0.051 0.275 0.039c0.137 0.011 0.272-0.030 0.378-0.113 0.087-0.082 0.143-0.188 0.159-0.303 0.025-0.166 0.036-0.333 0.033-0.5v-0.506h1.067v0.462c0.030 0.458-0.1 0.912-0.369 1.293-0.245 0.305-0.663 0.458-1.277 0.458s-1.078-0.163-1.341-0.502z"></path>
            <path fill="#afb1b8" style="fill: var(--color1, #afb1b8)" d="M35.532 15.117c-0.27-0.32-0.404-0.787-0.404-1.404v-2.163c0-0.611 0.135-1.073 0.404-1.387s0.72-0.47 1.353-0.469c0.628 0 1.076 0.156 1.346 0.469 0.27 0.314 0.407 0.776 0.407 1.387v2.163c0 0.611-0.137 1.080-0.411 1.402s-0.72 0.483-1.341 0.483c-0.621 0-1.081-0.163-1.353-0.481zM37.382 14.598c0.097-0.2 0.141-0.42 0.128-0.64v-2.649c0.012-0.216-0.031-0.431-0.126-0.628-0.054-0.076-0.13-0.136-0.218-0.172s-0.186-0.050-0.281-0.037c-0.096-0.013-0.194 0-0.282 0.037s-0.165 0.097-0.219 0.172c-0.097 0.196-0.141 0.412-0.128 0.628v2.661c-0.013 0.22 0.031 0.44 0.128 0.64 0.062 0.067 0.139 0.122 0.225 0.159s0.18 0.056 0.274 0.056 0.188-0.019 0.274-0.056c0.086-0.037 0.163-0.091 0.225-0.159v-0.013z"></path>
            <path fill="#afb1b8" style="fill: var(--color1, #afb1b8)" d="M39.921 9.757h1.149l0.864 3.992 0.884-3.992h1.118l0.113 5.762h-0.827l-0.088-4.004-0.853 4.004h-0.663l-0.884-4.019-0.082 4.019h-0.835l0.104-5.762z"></path>
            <path fill="#afb1b8" style="fill: var(--color1, #afb1b8)" d="M45.338 9.757h1.79c1.031 0 1.547 0.545 1.547 1.636 0 1.045-0.543 1.566-1.629 1.565h-0.61v2.561h-1.105l0.007-5.762zM46.868 12.219c0.109 0.013 0.22 0.004 0.325-0.028s0.201-0.084 0.283-0.154c0.127-0.195 0.183-0.423 0.159-0.651 0.006-0.176-0.012-0.352-0.053-0.523-0.016-0.057-0.043-0.111-0.081-0.158s-0.085-0.087-0.14-0.116c-0.153-0.070-0.323-0.101-0.493-0.092h-0.429v1.722h0.429z"></path>
            <path fill="#afb1b8" style="fill: var(--color1, #afb1b8)" d="M50.269 9.757h1.187l1.218 5.762h-1.030l-0.241-1.328h-1.059l-0.248 1.328h-1.045l1.218-5.762zM51.283 13.522l-0.413-2.418-0.413 2.418h0.827z"></path>
            <path fill="#afb1b8" style="fill: var(--color1, #afb1b8)" d="M53.657 9.757h0.773l1.481 3.287v-3.287h0.917v5.762h-0.736l-1.49-3.431v3.431h-0.948l0.002-5.762z"></path>
            <path fill="#afb1b8" style="fill: var(--color1, #afb1b8)" d="M58.976 13.321l-1.231-3.557h1.036l0.751 2.285 0.705-2.285h1.014l-1.215 3.557v2.197h-1.061v-2.197z"></path>
            <path fill="#afb1b8" style="fill: var(--color1, #afb1b8)" d="M32.794 18.037v0.301h-0.902v2.341h-0.378v-2.341h-0.906v-0.301h2.186z"></path>
            <path fill="#afb1b8" style="fill: var(--color1, #afb1b8)" d="M35.621 20.68h-0.292c-0.030 0.002-0.059-0.007-0.082-0.025-0.022-0.015-0.039-0.036-0.049-0.061l-0.261-0.628h-1.251l-0.261 0.628c-0.007 0.026-0.021 0.051-0.040 0.071-0.023 0.018-0.052 0.026-0.082 0.025h-0.292l1.105-2.642h0.385l1.118 2.632zM33.791 19.699h1.043l-0.442-1.075c-0.033-0.081-0.060-0.165-0.082-0.249-0.016 0.050-0.029 0.098-0.042 0.14l-0.040 0.111-0.438 1.073z"></path>
            <path fill="#afb1b8" style="fill: var(--color1, #afb1b8)" d="M37.526 20.42c0.069 0.003 0.139 0.003 0.208 0 0.060-0.006 0.119-0.016 0.177-0.031 0.054-0.013 0.107-0.029 0.159-0.048 0.049-0.019 0.097-0.042 0.148-0.065v-0.594h-0.442c-0.011 0.001-0.022-0.001-0.032-0.005s-0.020-0.009-0.028-0.016c-0.007-0.006-0.013-0.013-0.017-0.022s-0.006-0.017-0.005-0.026v-0.203h0.857v1.013c-0.070 0.047-0.144 0.089-0.221 0.126-0.079 0.037-0.161 0.067-0.245 0.090-0.090 0.025-0.183 0.043-0.276 0.054-0.107 0.011-0.215 0.017-0.323 0.017-0.191 0.002-0.38-0.032-0.557-0.098-0.165-0.063-0.316-0.157-0.442-0.276-0.123-0.12-0.22-0.263-0.285-0.418-0.070-0.175-0.104-0.361-0.102-0.548-0.002-0.188 0.031-0.375 0.099-0.552 0.064-0.157 0.161-0.299 0.285-0.419 0.126-0.119 0.276-0.212 0.442-0.274 0.189-0.067 0.39-0.101 0.592-0.098 0.103-0 0.206 0.008 0.307 0.023 0.090 0.014 0.178 0.036 0.263 0.067 0.077 0.027 0.151 0.063 0.221 0.105 0.068 0.041 0.132 0.087 0.192 0.138l-0.106 0.163c-0.008 0.015-0.021 0.027-0.036 0.036s-0.033 0.014-0.050 0.014c-0.024-0.001-0.048-0.008-0.069-0.021-0.033-0.017-0.069-0.038-0.108-0.063-0.047-0.028-0.097-0.052-0.148-0.071-0.066-0.025-0.134-0.045-0.203-0.059-0.093-0.016-0.187-0.024-0.281-0.023-0.146-0.002-0.291 0.023-0.427 0.073-0.123 0.047-0.234 0.118-0.325 0.209-0.092 0.095-0.162 0.207-0.206 0.328-0.099 0.286-0.099 0.595 0 0.881 0.048 0.124 0.124 0.238 0.221 0.333 0.091 0.091 0.201 0.162 0.323 0.209 0.141 0.046 0.289 0.063 0.438 0.052z"></path>
            <path fill="#afb1b8" style="fill: var(--color1, #afb1b8)" d="M41.049 20.378h1.207v0.301h-1.576v-2.642h0.378l-0.009 2.341z"></path>
            <path fill="#afb1b8" style="fill: var(--color1, #afb1b8)" d="M43.511 20.68h-0.378v-2.642h0.378v2.642z"></path>
            <path fill="#afb1b8" style="fill: var(--color1, #afb1b8)" d="M44.916 18.050c0.022 0.012 0.042 0.029 0.057 0.048l1.616 1.992c-0.002-0.031-0.002-0.063 0-0.094 0-0.029 0-0.059 0-0.086v-1.883h0.329v2.653h-0.19c-0.028 0.002-0.056-0.003-0.082-0.015-0.023-0.013-0.043-0.030-0.060-0.050l-1.613-1.99c0 0.031 0 0.061 0 0.090s0 0.056 0 0.082v1.883h-0.316v-2.643h0.197c0.021 0 0.042 0.004 0.062 0.013z"></path>
            <path fill="#afb1b8" style="fill: var(--color1, #afb1b8)" d="M49.701 18.037v0.291h-1.339v0.872h1.085v0.28h-1.085v0.902h1.339v0.291h-1.728v-2.636h1.728z"></path>
            <path fill="#afb1b8" style="fill: var(--color1, #afb1b8)" d="M10.099 1.718l16.781 4.511v15.807l-16.781-4.509v-15.809zM9.023 0.371v17.924l18.931 5.090v-17.922l-18.931-5.092z"></path>
            <path fill="#afb1b8" style="fill: var(--color1, #afb1b8)" d="M19.169 31.706l-18.933-5.095v-17.922l18.933 5.092v17.924z"></path>
            <path fill="#afb1b8" style="fill: var(--color1, #afb1b8)" d="M9.337 1.515l16.562 4.454-7.043 6.67-16.564-4.456 7.046-6.668zM9.023 0.371l-8.787 8.318 18.933 5.092 8.785-8.318-18.931-5.092z"></path>
            <path fill="#afb1b8" style="fill: var(--color1, #afb1b8)" d="M20.234 30.697l7.72-7.31-7.72-2.077v9.387z"></path>
        </symbol>
        <symbol id="icon-logo5" viewBox="0 0 40 32">
            <path fill="#afb1b8" style="fill: var(--color1, #afb1b8)" d="M3.605 26.335c0.152 0.189 0.233 0.426 0.229 0.668 0.008 0.158-0.020 0.317-0.081 0.463s-0.155 0.277-0.273 0.382c-0.295 0.224-0.661 0.334-1.031 0.308h-1.812v-4.236h1.775c0.35-0.023 0.698 0.076 0.983 0.281 0.115 0.096 0.205 0.218 0.265 0.356s0.087 0.287 0.079 0.437c0.010 0.234-0.063 0.463-0.206 0.648-0.138 0.168-0.328 0.285-0.54 0.331 0.24 0.044 0.457 0.172 0.612 0.362zM1.479 25.696h0.759c0.172 0.013 0.344-0.037 0.482-0.141 0.057-0.052 0.101-0.116 0.13-0.188s0.040-0.149 0.033-0.226c0.005-0.077-0.006-0.154-0.034-0.225s-0.071-0.136-0.127-0.189c-0.143-0.107-0.319-0.157-0.497-0.143h-0.746v1.111zM2.795 27.321c0.061-0.053 0.109-0.119 0.14-0.194s0.045-0.156 0.039-0.236c0.005-0.082-0.010-0.163-0.041-0.239s-0.080-0.142-0.142-0.196c-0.148-0.11-0.331-0.165-0.515-0.153h-0.796v1.165h0.806c0.181 0.011 0.361-0.041 0.509-0.147z"></path>
            <path fill="#afb1b8" style="fill: var(--color1, #afb1b8)" d="M7.232 28.157l-0.987-1.656h-0.371v1.656h-0.849v-4.236h1.608c0.405-0.028 0.806 0.101 1.119 0.36 0.225 0.23 0.36 0.533 0.382 0.854s-0.071 0.64-0.263 0.899c-0.198 0.228-0.469 0.38-0.767 0.43l1.051 1.693h-0.923zM5.874 25.924h0.695c0.482 0 0.724-0.214 0.724-0.642 0.005-0.087-0.008-0.175-0.039-0.257s-0.078-0.157-0.138-0.219c-0.152-0.127-0.349-0.189-0.546-0.172h-0.703l0.008 1.289z"></path>
            <path fill="#afb1b8" style="fill: var(--color1, #afb1b8)" d="M11.875 27.304h-1.692l-0.299 0.853h-0.89l1.554-4.189h0.963l1.548 4.189h-0.89l-0.293-0.853zM11.648 26.662l-0.618-1.788-0.618 1.788h1.237z"></path>
            <path fill="#afb1b8" style="fill: var(--color1, #afb1b8)" d="M17.685 28.157h-0.843l-1.89-2.881v2.881h-0.841v-4.236h0.841l1.89 2.897v-2.897h0.843v4.236z"></path>
            <path fill="#afb1b8" style="fill: var(--color1, #afb1b8)" d="M22.496 27.143c-0.174 0.32-0.44 0.58-0.763 0.747-0.367 0.186-0.774 0.278-1.185 0.267h-1.501v-4.236h1.501c0.41-0.011 0.817 0.079 1.185 0.261 0.323 0.163 0.589 0.421 0.763 0.739 0.174 0.345 0.264 0.725 0.264 1.111s-0.090 0.767-0.264 1.111zM21.532 27.041c0.241-0.281 0.373-0.64 0.373-1.011s-0.132-0.73-0.373-1.011c-0.291-0.255-0.67-0.384-1.055-0.36h-0.585v2.742h0.585c0.385 0.024 0.765-0.105 1.055-0.36z"></path>
            <path fill="#afb1b8" style="fill: var(--color1, #afb1b8)" d="M12.402 0.356c0 0 10.882 4.125 10.651 10.093v10.095c0 0-10.873-4.127-10.647-10.095l-0.004-10.093z"></path>
            <path fill="#afb1b8" style="fill: var(--color1, #afb1b8)" d="M32.747 18.181c2.055-1.42 4.432-2.3 6.914-2.558v-3.16c-2.859 1.106-5.285 3.112-6.914 5.718z"></path>
            <path fill="#afb1b8" style="fill: var(--color1, #afb1b8)" d="M31.513 19.133c1.682-3.401 4.598-6.025 8.148-7.333v-9.106c0 0-15.497 5.876-15.169 14.375v14.373c0 0 0.691-0.263 1.777-0.755 0-0.459 0-0.923 0.049-1.389 0.321-3.946 2.189-7.603 5.194-10.166z"></path>
            <path fill="#afb1b8" style="fill: var(--color1, #afb1b8)" d="M30.039 24.473c0.081-0.997 0.263-1.983 0.542-2.943-1.871 2.214-3.005 4.96-3.24 7.854-0.023 0.273-0.035 0.546-0.041 0.828 0.88-0.424 1.905-0.954 2.981-1.577-0.275-1.369-0.356-2.77-0.241-4.162z"></path>
            <path fill="#afb1b8" style="fill: var(--color1, #afb1b8)" d="M30.655 24.525c-0.103 1.259-0.039 2.527 0.192 3.769 4.234-2.544 8.991-6.474 8.808-11.223v-0.414c-3.025 0.34-5.855 1.668-8.056 3.779-0.515 1.309-0.833 2.687-0.944 4.090z"></path>
        </symbol>
        <symbol id="icon-logo4" viewBox="0 0 59 32">
            <path fill="#2196f3" style="fill: var(--color2, #2196f3)" d="M9.331 9.866h-0.002c-1.666 0-3.017 1.316-3.017 2.94v0.002c0 1.624 1.351 2.94 3.017 2.94h0.002c1.666 0 3.017-1.316 3.017-2.94v-0.002c0-1.624-1.351-2.94-3.017-2.94z"></path>
            <path fill="#2196f3" style="fill: var(--color2, #2196f3)" d="M31.602 8.926c-0.005-2.256-0.926-4.417-2.563-6.012s-3.855-2.493-6.169-2.499v0c-2.315 0.004-4.534 0.902-6.172 2.497s-2.559 3.758-2.564 6.014v12.438c0 0 17.465-1.896 17.467-12.436v-0.002z"></path>
            <path fill="#2196f3" style="fill: var(--color2, #2196f3)" d="M0.196 25.446c0.004 1.569 0.646 3.073 1.784 4.183s2.682 1.736 4.292 1.74c1.61-0.005 3.153-0.63 4.291-1.739s1.78-2.613 1.785-4.182v-8.654c0 0-12.153 1.32-12.153 8.653zM6.272 26.997c-0.315 0-0.622-0.091-0.884-0.261s-0.466-0.413-0.586-0.696c-0.12-0.283-0.152-0.595-0.091-0.896s0.213-0.577 0.435-0.794c0.223-0.217 0.506-0.364 0.815-0.424s0.629-0.029 0.919 0.088c0.291 0.117 0.539 0.316 0.714 0.571s0.268 0.555 0.268 0.862c0.001 0.204-0.040 0.406-0.119 0.595s-0.197 0.36-0.345 0.505-0.324 0.259-0.517 0.338c-0.193 0.078-0.401 0.119-0.61 0.119v-0.006z"></path>
            <path fill="#2196f3" style="fill: var(--color2, #2196f3)" d="M18.676 25.979h-1.243v1.284h-0.647v-3.142h2.046v0.524h-1.398v0.811h1.243v0.522zM21.788 25.763c0 0.309-0.055 0.581-0.164 0.814s-0.266 0.413-0.47 0.54c-0.203 0.127-0.436 0.19-0.699 0.19-0.26 0-0.493-0.063-0.697-0.188s-0.363-0.304-0.475-0.535c-0.112-0.233-0.169-0.501-0.17-0.803v-0.155c0-0.309 0.055-0.581 0.166-0.816 0.112-0.236 0.27-0.416 0.473-0.542 0.204-0.127 0.437-0.19 0.699-0.19s0.494 0.063 0.697 0.19c0.204 0.125 0.362 0.306 0.473 0.542 0.112 0.235 0.168 0.506 0.168 0.814v0.14zM21.132 25.62c0-0.329-0.059-0.58-0.177-0.751s-0.286-0.257-0.505-0.257c-0.217 0-0.385 0.085-0.503 0.255-0.118 0.168-0.178 0.416-0.179 0.742v0.153c0 0.321 0.059 0.57 0.177 0.747s0.288 0.265 0.509 0.265c0.217 0 0.384-0.085 0.501-0.255 0.116-0.171 0.175-0.42 0.177-0.747v-0.153zM23.888 26.438c0-0.122-0.043-0.216-0.13-0.28-0.086-0.066-0.242-0.135-0.466-0.207-0.224-0.073-0.402-0.145-0.533-0.216-0.357-0.193-0.535-0.452-0.535-0.779 0-0.17 0.047-0.321 0.142-0.453 0.096-0.134 0.234-0.238 0.412-0.313 0.18-0.075 0.381-0.112 0.604-0.112 0.224 0 0.424 0.041 0.6 0.123 0.176 0.081 0.311 0.195 0.408 0.343 0.098 0.148 0.147 0.317 0.147 0.505h-0.647c0-0.144-0.045-0.255-0.136-0.334-0.091-0.081-0.218-0.121-0.382-0.121-0.158 0-0.281 0.034-0.369 0.101-0.088 0.066-0.132 0.154-0.132 0.263 0 0.102 0.051 0.188 0.153 0.257 0.104 0.069 0.255 0.134 0.455 0.194 0.368 0.111 0.637 0.248 0.805 0.412s0.253 0.368 0.253 0.613c0 0.272-0.103 0.486-0.309 0.641-0.206 0.154-0.483 0.231-0.831 0.231-0.242 0-0.462-0.044-0.66-0.132-0.199-0.089-0.35-0.211-0.455-0.365-0.104-0.154-0.155-0.332-0.155-0.535h0.65c0 0.347 0.207 0.52 0.622 0.52 0.154 0 0.274-0.031 0.36-0.093 0.086-0.063 0.13-0.151 0.13-0.263zM27.343 24.645h-0.962v2.618h-0.647v-2.618h-0.95v-0.524h2.559v0.524zM29.604 25.901h-1.243v0.842h1.459v0.52h-2.106v-3.142h2.102v0.524h-1.454v0.749h1.243v0.507zM31.363 26.113h-0.516v1.15h-0.647v-3.142h1.167c0.371 0 0.658 0.083 0.859 0.248s0.302 0.399 0.302 0.701c0 0.214-0.047 0.393-0.14 0.537-0.092 0.142-0.232 0.256-0.421 0.341l0.68 1.284v0.030h-0.695l-0.589-1.15zM30.847 25.588h0.522c0.163 0 0.288-0.041 0.378-0.123 0.089-0.083 0.134-0.198 0.134-0.343 0-0.148-0.042-0.265-0.127-0.35-0.083-0.085-0.212-0.127-0.386-0.127h-0.52v0.943zM34.771 26.156v1.107h-0.647v-3.142h1.226c0.236 0 0.443 0.043 0.622 0.129 0.18 0.086 0.318 0.209 0.414 0.369 0.096 0.158 0.145 0.339 0.145 0.542 0 0.308-0.106 0.551-0.317 0.729-0.21 0.177-0.501 0.265-0.874 0.265h-0.568zM34.771 25.631h0.578c0.171 0 0.301-0.040 0.391-0.121 0.091-0.081 0.136-0.196 0.136-0.345 0-0.154-0.045-0.278-0.136-0.373s-0.216-0.144-0.376-0.147h-0.593v0.986zM38.867 25.901h-1.243v0.842h1.459v0.52h-2.106v-3.142h2.102v0.524h-1.454v0.749h1.243v0.507zM41.87 24.645h-0.962v2.618h-0.647v-2.618h-0.95v-0.524h2.559v0.524zM44.132 25.901h-1.243v0.842h1.459v0.52h-2.106v-3.142h2.102v0.524h-1.454v0.749h1.243v0.507zM45.891 26.113h-0.516v1.15h-0.647v-3.142h1.167c0.371 0 0.657 0.083 0.859 0.248s0.302 0.399 0.302 0.701c0 0.214-0.047 0.393-0.14 0.537-0.092 0.142-0.232 0.256-0.421 0.341l0.68 1.284v0.030h-0.695l-0.589-1.15zM45.375 25.588h0.522c0.163 0 0.288-0.041 0.378-0.123 0.089-0.083 0.134-0.198 0.134-0.343 0-0.148-0.042-0.265-0.127-0.35-0.083-0.085-0.212-0.127-0.386-0.127h-0.52v0.943zM49.18 26.438c0-0.122-0.043-0.216-0.129-0.28-0.086-0.066-0.242-0.135-0.466-0.207-0.224-0.073-0.402-0.145-0.533-0.216-0.357-0.193-0.535-0.452-0.535-0.779 0-0.17 0.047-0.321 0.142-0.453 0.096-0.134 0.234-0.238 0.412-0.313 0.18-0.075 0.381-0.112 0.604-0.112 0.224 0 0.424 0.041 0.6 0.123 0.175 0.081 0.311 0.195 0.408 0.343 0.098 0.148 0.147 0.317 0.147 0.505h-0.647c0-0.144-0.045-0.255-0.136-0.334-0.091-0.081-0.218-0.121-0.382-0.121-0.158 0-0.281 0.034-0.369 0.101-0.088 0.066-0.132 0.154-0.132 0.263 0 0.102 0.051 0.188 0.153 0.257 0.104 0.069 0.255 0.134 0.455 0.194 0.368 0.111 0.637 0.248 0.805 0.412s0.252 0.368 0.252 0.613c0 0.272-0.103 0.486-0.309 0.641-0.206 0.154-0.483 0.231-0.831 0.231-0.242 0-0.462-0.044-0.66-0.132-0.199-0.089-0.35-0.211-0.455-0.365-0.104-0.154-0.155-0.332-0.155-0.535h0.65c0 0.347 0.207 0.52 0.621 0.52 0.154 0 0.274-0.031 0.36-0.093 0.086-0.063 0.129-0.151 0.129-0.263z"></path>
        </symbol>
        <symbol id="icon-logo3" viewBox="0 0 31 32">
            <path fill="#afb1b8" style="fill: var(--color1, #afb1b8)" d="M5.373 31.201c0.011 0 0.022 0.003 0.032 0.007s0.019 0.011 0.027 0.018l0.152 0.159c-0.118 0.129-0.263 0.231-0.426 0.301-0.191 0.076-0.397 0.113-0.604 0.108-0.195 0.004-0.388-0.031-0.568-0.101-0.163-0.065-0.309-0.162-0.428-0.285-0.122-0.128-0.216-0.278-0.277-0.441-0.066-0.182-0.099-0.373-0.097-0.565-0.003-0.194 0.033-0.386 0.104-0.567 0.066-0.164 0.166-0.314 0.294-0.441 0.129-0.124 0.284-0.222 0.455-0.287 0.187-0.069 0.385-0.103 0.585-0.101 0.186-0.004 0.371 0.027 0.544 0.092 0.15 0.062 0.288 0.148 0.407 0.255l-0.127 0.17c-0.009 0.012-0.020 0.022-0.032 0.031-0.015 0.010-0.033 0.014-0.051 0.013-0.020-0.001-0.039-0.008-0.055-0.018l-0.068-0.045-0.095-0.058c-0.041-0.021-0.083-0.040-0.127-0.056-0.056-0.019-0.114-0.034-0.172-0.045-0.074-0.013-0.15-0.019-0.225-0.018-0.144-0.002-0.287 0.024-0.421 0.076-0.125 0.048-0.237 0.12-0.33 0.213-0.094 0.098-0.167 0.214-0.214 0.339-0.053 0.144-0.080 0.295-0.078 0.448-0.002 0.155 0.024 0.309 0.078 0.455 0.046 0.125 0.118 0.239 0.21 0.338 0.087 0.092 0.194 0.163 0.315 0.209 0.124 0.049 0.256 0.073 0.39 0.072 0.077 0.001 0.155-0.004 0.231-0.014 0.125-0.015 0.245-0.056 0.351-0.121 0.053-0.033 0.103-0.071 0.15-0.112 0.019-0.018 0.045-0.028 0.072-0.029z"></path>
            <path fill="#afb1b8" style="fill: var(--color1, #afb1b8)" d="M9.75 30.402c0.002 0.192-0.032 0.382-0.102 0.561-0.062 0.163-0.159 0.311-0.285 0.436s-0.279 0.222-0.448 0.286c-0.371 0.135-0.781 0.135-1.152 0-0.168-0.065-0.319-0.163-0.445-0.287-0.126-0.127-0.224-0.277-0.288-0.44-0.136-0.364-0.136-0.761 0-1.125 0.065-0.164 0.162-0.314 0.288-0.442 0.127-0.12 0.279-0.214 0.445-0.276 0.37-0.137 0.781-0.137 1.152 0 0.168 0.065 0.321 0.163 0.447 0.287 0.125 0.126 0.222 0.273 0.286 0.435 0.070 0.181 0.105 0.372 0.102 0.565zM9.352 30.402c0.003-0.153-0.021-0.306-0.072-0.451-0.042-0.125-0.111-0.24-0.203-0.338-0.089-0.093-0.198-0.166-0.32-0.213-0.27-0.099-0.568-0.099-0.837 0-0.122 0.047-0.231 0.12-0.32 0.213-0.093 0.097-0.162 0.212-0.205 0.338-0.096 0.294-0.096 0.609 0 0.903 0.043 0.125 0.112 0.24 0.205 0.338 0.089 0.092 0.198 0.164 0.32 0.211 0.27 0.096 0.567 0.096 0.837 0 0.122-0.047 0.231-0.119 0.32-0.211 0.091-0.098 0.16-0.213 0.203-0.338 0.051-0.145 0.075-0.298 0.072-0.451z"></path>
            <path fill="#afb1b8" style="fill: var(--color1, #afb1b8)" d="M12.736 30.876l0.040 0.101c0.015-0.036 0.028-0.069 0.044-0.101 0.014-0.034 0.031-0.067 0.049-0.099l0.968-1.677c0.019-0.029 0.036-0.047 0.055-0.052 0.026-0.008 0.053-0.011 0.080-0.009h0.286v2.727h-0.339v-2.005c0-0.025 0-0.054 0-0.085-0.002-0.031-0.002-0.063 0-0.094l-0.974 1.7c-0.012 0.026-0.032 0.047-0.057 0.062s-0.054 0.023-0.083 0.023h-0.055c-0.030 0-0.058-0.007-0.083-0.022s-0.045-0.037-0.057-0.062l-1.002-1.711c0 0.032 0 0.065 0 0.098s0 0.061 0 0.087v2.005h-0.328v-2.722h0.286c0.027-0.002 0.054 0.002 0.080 0.009 0.024 0.011 0.042 0.030 0.053 0.052l0.989 1.679c0.020 0.031 0.036 0.064 0.049 0.097z"></path>
            <path fill="#afb1b8" style="fill: var(--color1, #afb1b8)" d="M16.379 30.74v1.022h-0.379v-2.724h0.845c0.16-0.003 0.319 0.017 0.472 0.060 0.123 0.033 0.236 0.091 0.333 0.17 0.084 0.074 0.149 0.165 0.189 0.267 0.045 0.111 0.067 0.229 0.064 0.348 0.002 0.119-0.022 0.238-0.070 0.348-0.046 0.105-0.116 0.198-0.205 0.273-0.097 0.082-0.212 0.143-0.335 0.18-0.148 0.045-0.302 0.066-0.457 0.063l-0.459-0.007zM16.379 30.448h0.459c0.1 0.001 0.199-0.013 0.294-0.041 0.078-0.025 0.15-0.065 0.212-0.117 0.057-0.050 0.101-0.112 0.129-0.18 0.031-0.073 0.046-0.151 0.045-0.229 0.004-0.076-0.009-0.151-0.038-0.222s-0.075-0.134-0.133-0.186c-0.145-0.108-0.327-0.16-0.51-0.146h-0.459v1.123z"></path>
            <path fill="#afb1b8" style="fill: var(--color1, #afb1b8)" d="M21.472 31.765h-0.299c-0.030 0.001-0.060-0.008-0.083-0.025-0.021-0.017-0.038-0.039-0.049-0.063l-0.258-0.659h-1.294l-0.267 0.659c-0.010 0.024-0.026 0.045-0.047 0.061-0.024 0.018-0.054 0.028-0.085 0.027h-0.299l1.137-2.728h0.394l1.152 2.728zM19.596 30.753h1.069l-0.451-1.11c-0.034-0.084-0.063-0.169-0.085-0.256l-0.044 0.143c-0.013 0.043-0.028 0.083-0.042 0.116l-0.447 1.108z"></path>
            <path fill="#afb1b8" style="fill: var(--color1, #afb1b8)" d="M23.109 29.050c0.023 0.012 0.042 0.029 0.057 0.049l1.658 2.056c0-0.032 0-0.065 0-0.096s0-0.061 0-0.090v-1.931h0.339v2.728h-0.189c-0.027 0.001-0.054-0.005-0.078-0.016-0.023-0.013-0.044-0.030-0.061-0.051l-1.656-2.054c0.002 0.031 0.002 0.063 0 0.094 0 0.031 0 0.058 0 0.083v1.944h-0.339v-2.728h0.201c0.023-0.001 0.047 0.004 0.068 0.013z"></path>
            <path fill="#afb1b8" style="fill: var(--color1, #afb1b8)" d="M27.956 30.681v1.083h-0.379v-1.083l-1.048-1.643h0.339c0.029-0.002 0.058 0.007 0.081 0.023 0.021 0.017 0.038 0.038 0.051 0.061l0.656 1.060c0.027 0.045 0.049 0.087 0.068 0.126s0.034 0.078 0.047 0.116l0.049-0.117c0.018-0.043 0.040-0.084 0.064-0.125l0.646-1.067c0.014-0.021 0.030-0.041 0.049-0.058 0.022-0.019 0.052-0.028 0.081-0.027h0.343l-1.050 1.65z"></path>
            <path fill="#afb1b8" style="fill: var(--color1, #afb1b8)" d="M12.548 24.461c0.165 0.020 0.332 0.036 0.5 0.051 2.556-1.090 4.719-2.873 6.218-5.127s2.266-4.879 2.208-7.547l-2.817-2.684c0.573 2.84 0.305 5.776-0.774 8.48s-2.926 5.067-5.334 6.828z"></path>
            <path fill="#afb1b8" style="fill: var(--color1, #afb1b8)" d="M11.542 24.336l0.076 0.014c2.574-1.754 4.536-4.203 5.633-7.031s1.278-5.904 0.52-8.832l-4.013-3.823c1.623 3.143 2.276 6.659 1.884 10.142s-1.814 6.787-4.101 9.53z"></path>
            <path fill="#afb1b8" style="fill: var(--color1, #afb1b8)" d="M25.151 14.989c-0.682 2.931-2.337 5.575-4.721 7.538-0.696 0.577-1.447 1.090-2.243 1.534 1.941-0.544 3.725-1.505 5.215-2.809s2.645-2.917 3.377-4.714l-1.628-1.549z"></path>
            <path fill="#afb1b8" style="fill: var(--color1, #afb1b8)" d="M24.513 14.558l-2.317-2.208c-0.044 2.517-0.795 4.977-2.175 7.123s-3.338 3.902-5.671 5.084h0.011c0.52-0 1.039-0.030 1.556-0.088 2.18-0.848 4.106-2.197 5.606-3.926s2.527-3.786 2.99-5.986z"></path>
            <path fill="#afb1b8" style="fill: var(--color1, #afb1b8)" d="M11.878 3.052l-2.764-2.637c-2.471 0.91-4.596 2.509-6.098 4.589s-2.309 4.543-2.316 7.067v0c0.009 2.789 0.995 5.495 2.8 7.691s4.328 3.754 7.168 4.43c2.535-2.943 4.020-6.579 4.237-10.381s-0.843-7.57-3.027-10.758z"></path>
            <path fill="#afb1b8" style="fill: var(--color1, #afb1b8)" d="M30.9 14.152c-0.010-3.309-1.394-6.48-3.85-8.819s-5.784-3.659-9.257-3.668c-1.605-0.002-3.196 0.281-4.693 0.832l16.925 16.125c0.58-1.425 0.876-2.941 0.875-4.469z"></path>
        </symbol>
        <symbol id="icon-logo2" viewBox="0 0 24 32">
            <path fill="#afb1b8" style="fill: var(--color1, #afb1b8)" d="M10.425 2.061h0.082c0.152 0 0.316 0.015 0.478 0.029 0.716 0.050 1.427 0.158 2.126 0.321v-1.719c-0.72-0.181-1.454-0.298-2.194-0.349-0.281-0.021-0.58-0.035-0.887-0.043h-0.257c-1.485 0.006-2.964 0.196-4.403 0.568-1.639 0.409-3.212 1.048-4.672 1.9v17.043c1.406-0.764 2.902-1.347 4.453-1.735 1.225-0.312 2.476-0.505 3.738-0.574h0.050c0.211-0.011 0.422-0.017 0.639-0.018v-1.746c-1.639 0.021-3.27 0.238-4.859 0.646-0.588 0.153-1.155 0.317-1.688 0.501l-0.607 0.206v-13.289l0.26-0.125c1.981-0.94 4.124-1.486 6.312-1.61 0.018-0.001 0.036-0.001 0.055 0 0.241-0.012 0.484-0.018 0.723-0.018h0.273c0.126 0.003 0.252 0.006 0.378 0.014z"></path>
            <path fill="#afb1b8" style="fill: var(--color1, #afb1b8)" d="M14.707 3.861c-0.399 0-0.794-0.014-1.175-0.043-0.455-0.034-0.923-0.089-1.366-0.163-0.27-0.046-0.536-0.101-0.794-0.16v16.848c1.093 0.271 2.215 0.403 3.34 0.394 1.485-0.006 2.964-0.196 4.403-0.566 1.639-0.409 3.212-1.049 4.673-1.9v-16.74c-1.406 0.764-2.901 1.347-4.452 1.737-1.513 0.389-3.068 0.588-4.629 0.594zM21.443 4.152l0.607-0.204v13.293l-0.26 0.125c-0.996 0.474-2.036 0.848-3.105 1.116-1.298 0.336-2.633 0.509-3.973 0.514-0.401 0-0.799-0.017-1.184-0.050l-0.416-0.037v-13.67l0.484 0.032c0.352 0.023 0.717 0.034 1.113 0.034 1.702-0.006 3.397-0.223 5.045-0.647 0.566-0.15 1.13-0.317 1.688-0.505z"></path>
            <path fill="#afb1b8" style="fill: var(--color1, #afb1b8)" d="M1.878 25.636c-0.087-0.091-0.193-0.162-0.309-0.209s-0.241-0.069-0.367-0.064c-0.134-0.002-0.266 0.023-0.39 0.073-0.114 0.045-0.217 0.113-0.304 0.2s-0.152 0.191-0.196 0.305c-0.048 0.12-0.071 0.248-0.070 0.377v2.277c-0.005 0.16 0.025 0.32 0.090 0.467 0.054 0.117 0.131 0.221 0.228 0.305 0.091 0.077 0.198 0.132 0.313 0.162 0.111 0.031 0.225 0.047 0.34 0.047 0.127 0.001 0.252-0.026 0.367-0.079 0.114-0.050 0.217-0.121 0.304-0.211 0.085-0.088 0.152-0.192 0.199-0.305 0.049-0.115 0.073-0.238 0.073-0.363v-0.255h-0.595v0.203c0.002 0.069-0.010 0.138-0.035 0.203-0.019 0.048-0.049 0.092-0.087 0.128-0.037 0.030-0.079 0.052-0.125 0.066-0.040 0.013-0.082 0.021-0.125 0.021-0.053 0.006-0.107-0.002-0.156-0.023s-0.092-0.056-0.123-0.099c-0.056-0.091-0.084-0.198-0.079-0.305v-2.123c-0.004-0.118 0.021-0.235 0.073-0.34 0.031-0.048 0.075-0.086 0.126-0.111s0.109-0.034 0.165-0.027c0.051-0.002 0.102 0.009 0.149 0.031s0.086 0.056 0.117 0.097c0.067 0.087 0.101 0.195 0.099 0.305v0.197h0.589v-0.232c0.001-0.136-0.024-0.271-0.073-0.398-0.044-0.119-0.112-0.228-0.199-0.32z"></path>
            <path fill="#afb1b8" style="fill: var(--color1, #afb1b8)" d="M5.415 25.61c-0.19-0.16-0.429-0.249-0.677-0.25-0.121 0.001-0.241 0.022-0.355 0.064-0.116 0.041-0.222 0.105-0.314 0.186-0.099 0.089-0.177 0.197-0.231 0.319-0.060 0.139-0.089 0.29-0.087 0.441v2.184c-0.004 0.154 0.025 0.306 0.087 0.447 0.054 0.117 0.133 0.222 0.231 0.305 0.091 0.084 0.198 0.15 0.314 0.192 0.114 0.042 0.234 0.064 0.355 0.064s0.242-0.022 0.355-0.064c0.118-0.043 0.228-0.108 0.322-0.192 0.095-0.085 0.171-0.189 0.225-0.305 0.061-0.141 0.091-0.294 0.087-0.447v-2.184c0.003-0.152-0.027-0.302-0.087-0.441-0.053-0.12-0.129-0.229-0.225-0.319zM5.137 28.554c0.005 0.058-0.003 0.117-0.024 0.172s-0.053 0.104-0.095 0.144c-0.079 0.066-0.178 0.102-0.28 0.102s-0.202-0.036-0.28-0.102c-0.042-0.040-0.074-0.090-0.095-0.144s-0.029-0.113-0.024-0.172v-2.184c-0.005-0.058 0.003-0.117 0.024-0.172s0.053-0.104 0.095-0.144c0.079-0.066 0.178-0.102 0.28-0.102s0.202 0.036 0.28 0.102c0.042 0.040 0.074 0.090 0.095 0.144s0.029 0.113 0.024 0.172v2.184z"></path>
            <path fill="#afb1b8" style="fill: var(--color1, #afb1b8)" d="M10.059 29.529v-4.135h-0.572l-0.752 2.189h-0.011l-0.758-2.189h-0.566v4.135h0.591v-2.515h0.011l0.578 1.778h0.295l0.583-1.778h0.011v2.515h0.591z"></path>
            <path fill="#afb1b8" style="fill: var(--color1, #afb1b8)" d="M13.414 25.684c-0.091-0.102-0.206-0.18-0.334-0.226-0.138-0.045-0.283-0.067-0.428-0.064h-0.878v4.135h0.589v-1.615h0.304c0.184 0.008 0.367-0.031 0.531-0.113 0.134-0.074 0.246-0.183 0.323-0.316 0.068-0.11 0.114-0.232 0.135-0.36 0.023-0.156 0.034-0.313 0.032-0.47 0.006-0.199-0.014-0.397-0.058-0.591-0.039-0.143-0.114-0.274-0.217-0.38zM13.111 26.945c-0.003 0.075-0.021 0.148-0.055 0.215-0.034 0.064-0.087 0.114-0.152 0.145-0.087 0.039-0.183 0.057-0.278 0.052h-0.269v-1.406h0.304c0.091-0.005 0.183 0.013 0.266 0.052 0.061 0.035 0.109 0.088 0.138 0.153 0.032 0.073 0.050 0.151 0.052 0.23 0 0.087 0 0.179 0 0.275s0.006 0.195 0 0.284h-0.006z"></path>
            <path fill="#afb1b8" style="fill: var(--color1, #afb1b8)" d="M16.205 25.394h-0.483l-0.911 4.135h0.589l0.173-0.888h0.803l0.173 0.888h0.589l-0.934-4.135zM15.662 28.078l0.29-1.499h0.011l0.288 1.499h-0.589z"></path>
            <path fill="#afb1b8" style="fill: var(--color1, #afb1b8)" d="M20.012 27.885h-0.011l-0.89-2.491h-0.566v4.135h0.589v-2.486h0.012l0.9 2.486h0.554v-4.135h-0.589v2.491z"></path>
            <path fill="#afb1b8" style="fill: var(--color1, #afb1b8)" d="M23.611 25.394l-0.474 1.644h-0.012l-0.474-1.644h-0.624l0.809 2.387v1.747h0.589v-1.747l0.809-2.387h-0.624z"></path>
            <path fill="#afb1b8" style="fill: var(--color1, #afb1b8)" d="M0.235 30.696h0.284v0.797h0.193v-0.797h0.282v-0.163h-0.759v0.163z"></path>
            <path fill="#afb1b8" style="fill: var(--color1, #afb1b8)" d="M2.622 30.533l-0.372 0.96h0.205l0.079-0.218h0.383l0.082 0.218h0.21l-0.381-0.96h-0.205zM2.592 31.113l0.131-0.356 0.131 0.356h-0.261z"></path>
            <path fill="#afb1b8" style="fill: var(--color1, #afb1b8)" d="M4.982 31.139h0.222v0.124c-0.065 0.052-0.145 0.080-0.228 0.081-0.039 0.002-0.077-0.005-0.113-0.021s-0.066-0.040-0.091-0.071c-0.051-0.073-0.076-0.161-0.071-0.25 0-0.214 0.093-0.32 0.276-0.32 0.048-0.005 0.097 0.008 0.137 0.036s0.068 0.069 0.080 0.117l0.19-0.037c-0.041-0.188-0.176-0.282-0.407-0.282-0.123-0.003-0.243 0.041-0.336 0.124-0.048 0.048-0.086 0.106-0.11 0.169s-0.034 0.132-0.029 0.2c-0.006 0.131 0.038 0.26 0.123 0.36 0.047 0.049 0.104 0.086 0.167 0.11s0.13 0.035 0.198 0.030c0.15 0.004 0.296-0.051 0.407-0.153v-0.378h-0.416v0.162z"></path>
            <path fill="#afb1b8" style="fill: var(--color1, #afb1b8)" d="M7.391 30.533h-0.194v0.96h0.673v-0.163h-0.478v-0.797z"></path>
            <path fill="#afb1b8" style="fill: var(--color1, #afb1b8)" d="M9.429 30.533h-0.194v0.96h0.194v-0.96z"></path>
            <path fill="#afb1b8" style="fill: var(--color1, #afb1b8)" d="M11.421 31.174l-0.393-0.641h-0.188v0.96h0.181v-0.627l0.386 0.627h0.193v-0.96h-0.178v0.641z"></path>
            <path fill="#afb1b8" style="fill: var(--color1, #afb1b8)" d="M13.222 31.070h0.478v-0.163h-0.478v-0.211h0.515v-0.163h-0.709v0.96h0.729v-0.163h-0.534v-0.259z"></path>
            <path fill="#afb1b8" style="fill: var(--color1, #afb1b8)" d="M17.588 30.912h-0.378v-0.378h-0.193v0.96h0.193v-0.42h0.378v0.42h0.193v-0.96h-0.193v0.378z"></path>
            <path fill="#afb1b8" style="fill: var(--color1, #afb1b8)" d="M19.4 31.070h0.48v-0.163h-0.48v-0.211h0.516v-0.163h-0.709v0.96h0.727v-0.163h-0.534v-0.259z"></path>
            <path fill="#afb1b8" style="fill: var(--color1, #afb1b8)" d="M21.856 31.070c0.167-0.026 0.252-0.114 0.252-0.267 0.005-0.041-0.001-0.082-0.018-0.12s-0.043-0.070-0.076-0.094c-0.087-0.044-0.184-0.063-0.281-0.056h-0.407v0.96h0.193v-0.401h0.038c0.041-0.003 0.082 0.005 0.12 0.021 0.028 0.017 0.052 0.042 0.068 0.070l0.21 0.305h0.231l-0.117-0.188c-0.052-0.093-0.125-0.172-0.213-0.23zM21.662 30.938h-0.143v-0.241h0.152c0.066-0.005 0.133 0.002 0.196 0.023 0.014 0.012 0.025 0.028 0.032 0.045s0.011 0.036 0.010 0.055c-0.001 0.019-0.006 0.037-0.015 0.054s-0.021 0.031-0.037 0.042c-0.063 0.019-0.13 0.027-0.196 0.023z"></path>
            <path fill="#afb1b8" style="fill: var(--color1, #afb1b8)" d="M23.709 31.070h0.478v-0.163h-0.478v-0.211h0.516v-0.163h-0.711v0.96h0.729v-0.163h-0.534v-0.259z"></path>
        </symbol>
        <symbol id="icon-logo1" viewBox="0 0 29 32">
            <path fill="#afb1b8" style="fill: var(--color1, #afb1b8)" d="M4.32 0.326l4.644 4.396h12.954v12.264l4.644 4.396v-21.056h-22.242z"></path>
            <path fill="#afb1b8" style="fill: var(--color1, #afb1b8)" d="M0.507 4.537v20.455h21.607v-8.131l-13.013-12.319-8.594-0.005zM17.998 22h-14.072v-13.757h0.995v12.825h13.077v0.932z"></path>
            <path fill="#afb1b8" style="fill: var(--color1, #afb1b8)" d="M6.729 28.745l0.52-1.070h0.434l-0.757 1.427v0.832h-0.394v-0.832l-0.759-1.427h0.436l0.52 1.070zM8.96 29.408h-0.875l-0.183 0.526h-0.408l0.853-2.259h0.352l0.855 2.259h-0.41l-0.185-0.526zM8.195 29.091h0.655l-0.327-0.937-0.327 0.937zM10.507 29.324c0-0.104 0.028-0.2 0.085-0.287s0.169-0.192 0.337-0.312c-0.088-0.111-0.149-0.205-0.185-0.282s-0.051-0.153-0.051-0.225c0-0.177 0.054-0.317 0.161-0.419 0.108-0.103 0.252-0.155 0.434-0.155 0.164 0 0.299 0.049 0.403 0.146 0.105 0.096 0.158 0.216 0.158 0.358 0 0.094-0.024 0.181-0.071 0.261-0.048 0.079-0.126 0.157-0.234 0.236l-0.154 0.112 0.436 0.515c0.063-0.124 0.095-0.262 0.095-0.414h0.327c0 0.278-0.065 0.506-0.195 0.684l0.332 0.393h-0.438l-0.127-0.15c-0.161 0.121-0.354 0.182-0.577 0.182s-0.402-0.059-0.537-0.177c-0.133-0.119-0.2-0.274-0.2-0.464zM11.255 29.664c0.127 0 0.246-0.042 0.357-0.127l-0.493-0.582-0.048 0.034c-0.124 0.094-0.186 0.202-0.186 0.323 0 0.104 0.034 0.189 0.101 0.254s0.157 0.098 0.27 0.098zM11.047 28.209c0 0.087 0.053 0.196 0.16 0.327l0.172-0.118 0.048-0.039c0.064-0.057 0.096-0.13 0.096-0.219 0-0.059-0.022-0.109-0.067-0.15-0.044-0.042-0.101-0.064-0.169-0.064-0.073 0-0.132 0.025-0.175 0.074s-0.065 0.112-0.065 0.188zM15.15 29.198c-0.023 0.241-0.112 0.429-0.267 0.565-0.155 0.134-0.362 0.202-0.619 0.202-0.18 0-0.339-0.042-0.476-0.127-0.137-0.086-0.242-0.207-0.316-0.365s-0.113-0.34-0.116-0.548v-0.211c0-0.213 0.038-0.401 0.113-0.563s0.184-0.288 0.324-0.375c0.142-0.088 0.305-0.132 0.49-0.132 0.249 0 0.45 0.068 0.602 0.203s0.241 0.327 0.265 0.574h-0.391c-0.019-0.162-0.066-0.279-0.143-0.351-0.075-0.072-0.187-0.109-0.334-0.109-0.171 0-0.302 0.063-0.394 0.188s-0.138 0.307-0.14 0.548v0.2c0 0.244 0.043 0.43 0.13 0.558s0.216 0.192 0.385 0.192c0.154 0 0.27-0.035 0.348-0.104s0.127-0.185 0.147-0.346h0.391zM17.305 28.863c0 0.221-0.038 0.416-0.115 0.583-0.077 0.167-0.186 0.295-0.329 0.385-0.142 0.089-0.305 0.133-0.49 0.133-0.183 0-0.347-0.044-0.49-0.133-0.143-0.090-0.253-0.218-0.332-0.383-0.078-0.166-0.117-0.356-0.118-0.573v-0.127c0-0.22 0.039-0.415 0.116-0.583s0.189-0.297 0.33-0.386c0.143-0.090 0.306-0.135 0.49-0.135s0.347 0.044 0.489 0.133c0.143 0.088 0.253 0.215 0.33 0.382 0.078 0.165 0.117 0.358 0.118 0.579v0.126zM16.913 28.745c0-0.25-0.048-0.442-0.143-0.576-0.094-0.133-0.228-0.2-0.402-0.2-0.17 0-0.302 0.067-0.399 0.2-0.095 0.132-0.144 0.32-0.146 0.563v0.13c0 0.248 0.048 0.44 0.144 0.576 0.097 0.136 0.232 0.203 0.403 0.203 0.174 0 0.307-0.066 0.4-0.199 0.094-0.132 0.141-0.326 0.141-0.58v-0.118z"></path>
        </symbol>
        <symbol id="icon-Group" viewBox="0 0 30 32">
            <path fill="#212121" style="fill: var(--color3, #212121)" d="M29.859 22.098l-8.443-8.505 0.937-4.615c0.242 0.094 0.499 0.144 0.758 0.146h0.006c1.192 0.014 2.17-0.941 2.184-2.133s-0.941-2.17-2.133-2.184c-1.192-0.014-2.17 0.941-2.184 2.133-0.003 0.255 0.039 0.509 0.125 0.749l-4.96 0.605-8.091-8.133c-0.099-0.101-0.235-0.159-0.377-0.16-0.14 0.001-0.274 0.056-0.373 0.155l-1.513 1.504c-0.208 0.208-0.208 0.546 0 0.754l0.814 0.826c-3.153 5.798-2.129 12.978 2.519 17.663 0.043 0.041 0.092 0.074 0.146 0.098-0.034 0.18-0.051 0.364-0.052 0.547v6.187h-6.4c-1.472 0.002-2.665 1.195-2.667 2.667v1.067c0 0.295 0.239 0.533 0.533 0.533h24.533c0.295 0 0.533-0.239 0.533-0.533v-1.067c-0.002-1.472-1.195-2.665-2.667-2.667h-6.4v-2.742c1.003 0.21 2.024 0.317 3.049 0.32 2.458-0.003 4.877-0.615 7.040-1.783l0.818 0.823c0.099 0.101 0.235 0.159 0.377 0.16 0.14-0.001 0.274-0.056 0.373-0.155l1.512-1.504c0.208-0.208 0.208-0.546 0-0.754zM22.366 6.233c0.418-0.415 1.093-0.414 1.508 0.004s0.414 1.093-0.004 1.508c-0.2 0.199-0.47 0.31-0.752 0.31h-0.003c-0.589-0.003-1.064-0.483-1.061-1.072 0.001-0.282 0.114-0.552 0.314-0.751h-0.002zM21.11 9.738l-0.598 2.946-1.175-1.182 1.774-1.763zM20.504 8.836l-1.92 1.909-1.485-1.493 3.405-0.415zM23.090 28.8c0.884 0 1.6 0.716 1.6 1.6v0.533h-23.467v-0.533c0-0.884 0.716-1.6 1.6-1.6h20.267zM15.623 26.667v1.067h-5.333v-1.067h5.333zM10.29 25.6v-4.053c0-1.294 1.196-2.347 2.667-2.347s2.667 1.053 2.667 2.347v4.053h-5.333zM16.69 23.904v-2.357c0-1.882-1.675-3.413-3.733-3.413-1.331-0.020-2.576 0.657-3.281 1.786-4.058-4.274-4.971-10.645-2.279-15.887l18.602 18.708c-2.872 1.461-6.165 1.873-9.309 1.163zM27.979 23.22l-21.057-21.181 0.755-0.752 7.935 7.98c0.004 0 0.006 0.007 0.010 0.010l13.115 13.191-0.757 0.752z"></path>
            <path fill="#2196f3" style="fill: var(--color2, #2196f3)" d="M12.961 20.267h-0.005c-0.884-0.001-1.601 0.714-1.602 1.598s0.714 1.601 1.598 1.602h0.005c0.884 0.001 1.601-0.714 1.602-1.598s-0.714-1.601-1.598-1.602zM13.335 22.245c-0.1 0.1-0.236 0.156-0.378 0.155-0.295-0.002-0.532-0.242-0.53-0.536 0.001-0.141 0.057-0.276 0.157-0.375s0.233-0.154 0.373-0.155c0.295 0.002 0.532 0.241 0.531 0.536-0.001 0.141-0.057 0.276-0.157 0.375h0.005z"></path>
        </symbol>
        <symbol id="icon-diagram1" viewBox="0 0 32 32">
            <path fill="#2196f3" style="fill: var(--color2, #2196f3)" d="M14.926 14.965h1.066v4.798h-1.066v-4.797z"></path>
            <path fill="#2196f3" style="fill: var(--color2, #2196f3)" d="M19.19 17.097h1.066v2.665h-1.066v-2.665z"></path>
            <path fill="#2196f3" style="fill: var(--color2, #2196f3)" d="M10.661 18.696h1.066v1.066h-1.066v-1.066z"></path>
            <path fill="#2196f3" style="fill: var(--color2, #2196f3)" d="M7.463 18.163h1.066v1.599h-1.066v-1.599z"></path>
            <path fill="#212121" style="fill: var(--color3, #212121)" d="M1.599 28.291h25.587c0.883 0 1.599-0.716 1.599-1.599v-2.132c0-0.883-0.716-1.599-1.599-1.599h-0.533v-13.293l3.028-2.868c0.703 0.346 1.553 0.136 2.013-0.499s0.396-1.508-0.152-2.068-1.42-0.644-2.065-0.198c-0.644 0.446-0.873 1.292-0.542 2.002l-2.281 2.163v-1.23c0-0.883-0.716-1.599-1.599-1.599h-21.322c-0.883 0-1.599 0.716-1.599 1.599v15.992h-0.533c-0.883 0-1.599 0.716-1.599 1.599v2.132c0 0.883 0.716 1.599 1.599 1.599zM30.384 4.837c0.294 0 0.533 0.239 0.533 0.533s-0.239 0.533-0.533 0.533c-0.294 0-0.533-0.239-0.533-0.533s0.239-0.533 0.533-0.533zM3.198 6.969c0-0.294 0.239-0.533 0.533-0.533h21.322c0.294 0 0.533 0.239 0.533 0.533v2.239l-1.066 1.013v-2.186c0-0.294-0.239-0.533-0.533-0.533h-19.19c-0.294 0-0.533 0.239-0.533 0.533v13.326c0 0.294 0.239 0.533 0.533 0.533h19.19c0.294 0 0.533-0.239 0.533-0.533v-9.674l1.066-1.010v12.284h-22.388v-15.992zM7.996 13.899c-0.721-0.002-1.354 0.478-1.546 1.174s0.105 1.433 0.725 1.801c0.62 0.368 1.41 0.276 1.928-0.226l1.853 0.93c0.215 0.108 0.476 0.057 0.636-0.123l3.939-4.431 3.872 2.901c0.208 0.156 0.498 0.139 0.686-0.039l3.365-3.188v8.131h-18.124v-12.26h18.124v2.66l-3.771 3.572-3.904-2.927c-0.222-0.166-0.534-0.135-0.718 0.072l-3.993 4.493-1.493-0.746c0.011-0.064 0.018-0.129 0.020-0.193 0-0.883-0.716-1.599-1.599-1.599zM8.529 15.498c0 0.294-0.239 0.533-0.533 0.533s-0.533-0.239-0.533-0.533c0-0.294 0.239-0.533 0.533-0.533s0.533 0.239 0.533 0.533zM11.727 24.026h5.331v0.533c0 0.294-0.239 0.533-0.533 0.533h-4.264c-0.294 0-0.533-0.239-0.533-0.533v-0.533zM1.066 24.56c0-0.294 0.239-0.533 0.533-0.533h9.062v0.533c0 0.883 0.716 1.599 1.599 1.599h4.264c0.883 0 1.599-0.716 1.599-1.599v-0.533h9.062c0.294 0 0.533 0.239 0.533 0.533v2.132c0 0.294-0.239 0.533-0.533 0.533h-25.587c-0.294 0-0.533-0.239-0.533-0.533v-2.132z"></path>
        </symbol>
        <symbol id="icon-clock1" viewBox="0 0 32 32">
            <path fill="#212121" style="fill: var(--color3, #212121)" d="M31.297 15.301c-0.002-8.452-6.855-15.303-15.308-15.301s-15.303 6.855-15.301 15.308c0.001 6.658 4.307 12.551 10.649 14.576 0.061 0.019 0.124 0.029 0.187 0.029 0.121-0 0.239-0.032 0.343-0.094 0.135-0.080 0.236-0.207 0.283-0.356l3.865-12.25c1.057-0.005 1.909-0.866 1.903-1.923s-0.866-1.909-1.923-1.903c-0.284 0.001-0.565 0.067-0.82 0.191l-5.106-5.107c-0.253-0.245-0.657-0.238-0.902 0.016-0.239 0.247-0.239 0.639 0 0.886l5.103 5.109c-0.392 0.799-0.168 1.764 0.536 2.309l-3.683 11.673c-7.278-2.681-11.004-10.754-8.323-18.032s10.754-11.004 18.032-8.323c7.278 2.681 11.004 10.754 8.324 18.032-1.31 3.556-4.001 6.431-7.462 7.973l-0.398-1.874c-0.073-0.344-0.411-0.565-0.756-0.492-0.109 0.023-0.209 0.074-0.292 0.148l-3.837 3.426c-0.263 0.234-0.287 0.637-0.052 0.9 0.076 0.085 0.174 0.149 0.283 0.184l4.899 1.563c0.335 0.108 0.694-0.077 0.802-0.412 0.034-0.106 0.040-0.219 0.017-0.328l-0.391-1.839c5.664-2.388 9.342-7.942 9.329-14.089zM15.992 14.664c0.352 0 0.638 0.286 0.638 0.638s-0.286 0.638-0.638 0.638c-0.352 0-0.638-0.285-0.638-0.638s0.285-0.638 0.638-0.638zM18.093 29.528l2.184-1.948 0.603 2.84-2.787-0.892z"></path>
            <path fill="#2196f3" style="fill: var(--color2, #2196f3)" d="M15.354 3.185v1.275c0 0.352 0.285 0.638 0.638 0.638s0.638-0.285 0.638-0.638v-1.275c0-0.352-0.286-0.638-0.638-0.638s-0.638 0.286-0.638 0.638z"></path>
            <path fill="#2196f3" style="fill: var(--color2, #2196f3)" d="M3.876 14.664c-0.352 0-0.638 0.286-0.638 0.638s0.285 0.638 0.638 0.638h1.275c0.352 0 0.638-0.285 0.638-0.638s-0.285-0.638-0.638-0.638h-1.275z"></path>
            <path fill="#2196f3" style="fill: var(--color2, #2196f3)" d="M28.108 15.939c0.352 0 0.638-0.285 0.638-0.638s-0.285-0.638-0.638-0.638h-1.275c-0.352 0-0.638 0.286-0.638 0.638s0.286 0.638 0.638 0.638h1.275z"></path>
        </symbol>
        <symbol id="icon-astronaut1" viewBox="0 0 32 32">
            <path fill="#2196f3" style="fill: var(--color2, #2196f3)" d="M31.974 4.524c-0.063-0.193-0.229-0.333-0.43-0.363l-1.91-0.278-0.855-1.731c-0.179-0.365-0.777-0.365-0.956 0l-0.855 1.731-1.91 0.278c-0.201 0.029-0.367 0.17-0.431 0.363-0.062 0.193-0.011 0.405 0.135 0.547l1.383 1.348-0.326 1.903c-0.034 0.2 0.048 0.402 0.212 0.522 0.166 0.121 0.382 0.135 0.562 0.040l1.709-0.899 1.709 0.899c0.078 0.041 0.164 0.061 0.249 0.061 0.11 0 0.221-0.034 0.314-0.102 0.164-0.119 0.246-0.322 0.212-0.522l-0.326-1.903 1.383-1.348c0.145-0.142 0.197-0.354 0.135-0.547zM29.511 5.851c-0.125 0.122-0.183 0.299-0.153 0.472l0.191 1.114-1-0.526c-0.078-0.041-0.163-0.061-0.249-0.061s-0.17 0.020-0.249 0.061l-1.001 0.526 0.191-1.114c0.030-0.173-0.028-0.349-0.153-0.472l-0.81-0.789 1.119-0.163c0.174-0.025 0.324-0.134 0.402-0.292l0.5-1.013 0.5 1.013c0.078 0.157 0.228 0.267 0.402 0.292l1.119 0.163-0.809 0.789z"></path>
            <path fill="#2196f3" style="fill: var(--color2, #2196f3)" d="M26.134 20.522h-1.067v1.067h1.067v-1.067z"></path>
            <path fill="#2196f3" style="fill: var(--color2, #2196f3)" d="M26.134 22.656h-1.067v1.067h1.067v-1.067z"></path>
            <path fill="#2196f3" style="fill: var(--color2, #2196f3)" d="M27.2 21.589h-1.067v1.067h1.067v-1.067z"></path>
            <path fill="#2196f3" style="fill: var(--color2, #2196f3)" d="M25.067 21.589h-1.067v1.067h1.067v-1.067z"></path>
            <path fill="#2196f3" style="fill: var(--color2, #2196f3)" d="M22.4 26.389h-1.067v1.067h1.067v-1.067z"></path>
            <path fill="#2196f3" style="fill: var(--color2, #2196f3)" d="M22.4 28.522h-1.067v1.067h1.067v-1.067z"></path>
            <path fill="#2196f3" style="fill: var(--color2, #2196f3)" d="M23.467 27.456h-1.067v1.067h1.067v-1.067z"></path>
            <path fill="#2196f3" style="fill: var(--color2, #2196f3)" d="M21.333 27.456h-1.067v1.067h1.067v-1.067z"></path>
            <path fill="#2196f3" style="fill: var(--color2, #2196f3)" d="M16 24.256h-1.067v1.067h1.067v-1.067z"></path>
            <path fill="#2196f3" style="fill: var(--color2, #2196f3)" d="M16 26.389h-1.067v1.067h1.067v-1.067z"></path>
            <path fill="#2196f3" style="fill: var(--color2, #2196f3)" d="M17.067 25.322h-1.067v1.067h1.067v-1.067z"></path>
            <path fill="#2196f3" style="fill: var(--color2, #2196f3)" d="M14.933 25.322h-1.067v1.067h1.067v-1.067z"></path>
            <path fill="#2196f3" style="fill: var(--color2, #2196f3)" d="M5.867 6.122h-1.067v1.067h1.067v-1.067z"></path>
            <path fill="#2196f3" style="fill: var(--color2, #2196f3)" d="M5.867 8.255h-1.067v1.067h1.067v-1.067z"></path>
            <path fill="#2196f3" style="fill: var(--color2, #2196f3)" d="M6.933 7.189h-1.067v1.067h1.067v-1.067z"></path>
            <path fill="#2196f3" style="fill: var(--color2, #2196f3)" d="M4.8 7.189h-1.067v1.067h1.067v-1.067z"></path>
            <path fill="#212121" style="fill: var(--color3, #212121)" d="M24.715 14.159c-0.287-0.388-0.709-0.637-1.188-0.705-0.481-0.068-0.956 0.058-1.34 0.352l-1.252 0.96-1.898 1.417-1.358-0.541c2.421-1.086 4.114-3.508 4.114-6.32 0-3.823-3.123-6.933-6.961-6.933s-6.961 3.11-6.961 6.933c0 1.386 0.414 2.674 1.12 3.758l-2.764-0.024c-0.002 0-0.003 0-0.005 0-0.009 0-0.015 0.004-0.023 0.005-0.053 0.002-0.105 0.013-0.155 0.031-0.013 0.005-0.026 0.008-0.038 0.013-0.006 0.003-0.013 0.003-0.019 0.006l-3.233 1.596c-0.001 0-0.001 0-0.001 0.001l-1.893 0.911c-0.021 0.009-0.042 0.021-0.063 0.035-0.755 0.502-1.012 1.489-0.598 2.295 0.22 0.429 0.595 0.745 1.056 0.889 0.178 0.055 0.359 0.083 0.539 0.083 0.29 0 0.577-0.071 0.839-0.211l1.388-0.738 2.264-1.169 1.357-0.008-5.442 5.416c-0.001 0.001-0.001 0.001-0.002 0.001l-1.339 1.333c-0.316 0.315-0.49 0.732-0.49 1.178s0.174 0.863 0.49 1.179c0.325 0.323 0.752 0.485 1.179 0.485s0.854-0.162 1.18-0.485l1.314-1.309 1.741-1.3 0.901 0.897-1.762 1.754c-0 0.001-0.001 0.001-0.002 0.001l-1.339 1.333c-0.316 0.315-0.49 0.732-0.49 1.178s0.174 0.863 0.49 1.179c0.325 0.323 0.753 0.485 1.18 0.485s0.855-0.162 1.18-0.485l3.482-3.467c0.001-0.001 0.001-0.001 0.001-0.002l1.010-1-0.004-0.004c0.006-0.006 0.015-0.009 0.022-0.015l5.166-5.658 3.471 0.494c0.025 0.004 0.050 0.005 0.075 0.005 0.065 0 0.127-0.015 0.187-0.038 0.018-0.006 0.033-0.015 0.050-0.023 0.019-0.010 0.039-0.015 0.058-0.027l3.213-2.133c0.012-0.008 0.018-0.021 0.029-0.029 0.013-0.010 0.029-0.014 0.041-0.026l1.271-1.191c0.662-0.62 0.753-1.635 0.212-2.362zM2.13 17.77c-0.173 0.093-0.37 0.111-0.558 0.052-0.187-0.058-0.338-0.186-0.427-0.358-0.161-0.314-0.068-0.695 0.214-0.902l1.314-0.632 0.449 1.313-0.992 0.527zM5.628 15.942l-1.548 0.8-0.439-1.283 2.027-1.001-0.040 1.484zM20.727 9.322c0 0.918-0.219 1.785-0.599 2.559l-4.181-1.899c-0.044-0.573-0.341-1.075-0.788-1.388l1.464-4.86c2.378 0.756 4.105 2.974 4.105 5.588zM8.938 9.322c0-3.235 2.644-5.867 5.894-5.867 0.253 0 0.5 0.021 0.745 0.052l-1.432 4.754c-0.019-0.001-0.037-0.006-0.057-0.006-1.033 0-1.873 0.837-1.873 1.867s0.84 1.867 1.873 1.867c0.694 0 1.294-0.383 1.618-0.945l3.862 1.755c-1.075 1.446-2.795 2.39-4.737 2.39-3.25 0-5.894-2.632-5.894-5.867zM14.894 10.122c0 0.441-0.362 0.8-0.806 0.8s-0.806-0.359-0.806-0.8c0-0.441 0.362-0.8 0.806-0.8s0.806 0.359 0.806 0.8zM2.465 25.146c-0.236 0.234-0.619 0.234-0.854 0.001-0.114-0.114-0.176-0.263-0.176-0.423s0.062-0.309 0.176-0.421l0.962-0.959 0.851 0.848-0.959 0.955zM5.679 28.88c-0.236 0.234-0.619 0.235-0.855 0.001-0.114-0.114-0.176-0.263-0.176-0.423s0.062-0.309 0.176-0.421l0.963-0.959 0.852 0.848-0.96 0.955zM9.16 25.411c-0.001 0-0.001 0-0.002 0.001l-1.765 1.76-0.852-0.848 1.763-1.755c0 0 0 0 0-0s0.001-0.001 0.002-0.001c0.040-0.040 0.065-0.088 0.090-0.135 0.007-0.014 0.020-0.026 0.026-0.040 0.017-0.041 0.019-0.085 0.026-0.129 0.003-0.025 0.014-0.047 0.014-0.073 0-0.036-0.013-0.070-0.020-0.106-0.006-0.032-0.006-0.065-0.019-0.095-0.020-0.050-0.055-0.094-0.091-0.138-0.010-0.012-0.014-0.027-0.025-0.038 0 0 0 0-0.001 0s-0.001-0.002-0.001-0.002l-1.607-1.6c-0.017-0.017-0.039-0.024-0.058-0.038-0.028-0.022-0.055-0.042-0.087-0.058-0.030-0.015-0.061-0.024-0.093-0.033-0.034-0.010-0.067-0.017-0.103-0.020-0.033-0.002-0.063 0.001-0.095 0.005-0.036 0.004-0.069 0.009-0.104 0.020-0.034 0.011-0.063 0.027-0.094 0.045-0.020 0.011-0.042 0.015-0.061 0.029l-1.773 1.324-0.901-0.897 2.399-2.386 4.361 4.289-0.928 0.919zM15.979 18.394c-0.015-0.002-0.030 0.004-0.045 0.003-0.039-0.002-0.076 0.001-0.115 0.007-0.030 0.005-0.059 0.011-0.088 0.021-0.034 0.012-0.065 0.028-0.097 0.047-0.030 0.018-0.057 0.037-0.083 0.061-0.013 0.011-0.028 0.017-0.040 0.029l-4.698 5.146-4.328-4.257 2.833-2.818c0.209-0.208 0.21-0.546 0.002-0.755-0.105-0.105-0.243-0.157-0.381-0.156v-0.001l-2.219 0.013 0.028-1.607 3.104 0.027c1.265 1.294 3.029 2.101 4.981 2.101 0.437 0 0.864-0.045 1.279-0.123 0.040 0.032 0.079 0.065 0.13 0.085l2.41 0.96 0.152 0.758 0.178 0.885-3.003-0.427zM20.020 18.572l-0.313-1.558 1.446-1.080 0.947 1.257-2.080 1.381zM23.774 15.741l-0.838 0.785-0.931-1.236 0.831-0.637c0.155-0.119 0.351-0.168 0.543-0.143 0.193 0.027 0.364 0.128 0.48 0.284 0.217 0.292 0.18 0.699-0.085 0.947z"></path>
            <path fill="#212121" style="fill: var(--color3, #212121)" d="M13.602 18.544l-2.143-2.133c-0.207-0.207-0.545-0.207-0.753 0l-2.142 2.133c-0.1 0.101-0.157 0.236-0.157 0.378s0.056 0.278 0.157 0.378l2.142 2.133c0.104 0.103 0.241 0.155 0.377 0.155s0.273-0.052 0.376-0.155l2.143-2.133c0.1-0.1 0.157-0.236 0.157-0.378s-0.057-0.278-0.157-0.378zM11.083 20.303l-1.387-1.381 1.387-1.381 1.387 1.381-1.387 1.381z"></path>
            <path fill="#212121" style="fill: var(--color3, #212121)" d="M17.164 5.071l-0.258 1.036c0.071 0.018 1.738 0.452 1.738 2.149h1.067c-0-2.017-1.666-2.965-2.547-3.185z"></path>
            <path fill="#212121" style="fill: var(--color3, #212121)" d="M19.711 9.322h-1.067v1.067h1.067v-1.067z"></path>
        </symbol>
    </defs>
</svg>